<svg width="497" height="332" viewBox="0 0 497 332" fill="none" xmlns="http://www.w3.org/2000/svg">
<g filter="url(#filter0_d_275_2296)">
<rect x="40" y="10" width="417" height="252" rx="20" fill="white" shape-rendering="crispEdges"/>
<path d="M187.44 64V46.12H191.16V64H187.44ZM200.841 50.608C203.793 50.608 205.809 52.6 205.809 55.576V64H202.209V56.344C202.209 54.832 201.225 53.848 199.809 53.848C198.393 53.848 197.409 54.832 197.409 56.344V64H193.809V50.896H197.169V52.48C197.841 51.208 199.185 50.608 200.841 50.608ZM213.27 64.288C210.414 64.288 208.062 62.896 207.246 60.52L209.91 59.272C210.606 60.736 211.782 61.528 213.27 61.528C214.398 61.528 215.118 61.072 215.118 60.352C215.118 59.488 214.062 59.224 213.606 59.104L211.302 58.504C208.926 57.88 207.774 56.488 207.774 54.688C207.774 52.264 209.862 50.608 212.934 50.608C215.622 50.608 217.758 51.904 218.598 54.04L215.91 55.288C215.478 54.16 214.35 53.488 212.934 53.488C211.878 53.488 211.254 53.896 211.254 54.568C211.254 55.36 212.166 55.6 212.598 55.72L215.022 56.368C217.35 56.992 218.598 58.336 218.598 60.208C218.598 62.632 216.414 64.288 213.27 64.288ZM220.27 49.72V46.12H223.87V49.72H220.27ZM220.27 64V50.896H223.87V64H220.27ZM235.966 50.896H239.326V63.304C239.326 66.976 236.23 69.328 232.582 69.328C229.582 69.328 227.182 67.744 226.414 65.344L229.486 63.832C229.894 65.248 230.998 66.088 232.582 66.088C234.382 66.088 235.726 65.008 235.726 63.304V62.032C234.814 62.896 233.542 63.352 232.078 63.352C228.526 63.352 225.55 60.808 225.55 56.944C225.55 52.984 228.67 50.608 232.006 50.608C233.71 50.608 235.054 51.232 235.966 52.288V50.896ZM232.534 60.088C234.382 60.088 235.726 58.816 235.726 56.992C235.726 55.12 234.334 53.848 232.534 53.848C230.734 53.848 229.27 55.12 229.27 56.992C229.27 58.816 230.686 60.088 232.534 60.088ZM248.748 50.608C251.7 50.608 253.716 52.576 253.716 55.552V64H250.116V56.32C250.116 54.832 249.132 53.848 247.716 53.848C246.3 53.848 245.316 54.832 245.316 56.32V64H241.716V46.12H245.316V52.096C246.036 51.088 247.284 50.608 248.748 50.608ZM262.16 64.144C258.992 64.144 257.168 62.344 257.168 59.272V54.016H254.912V50.896H255.08C256.424 50.896 257.168 50.224 257.168 48.88V46.96H260.768V50.896H263.84V54.016H260.768V59.272C260.768 60.616 261.488 61.264 263 61.264C263.216 61.264 263.504 61.24 263.84 61.192V64.024C263.36 64.096 262.712 64.144 262.16 64.144ZM270.832 64.288C267.976 64.288 265.624 62.896 264.808 60.52L267.472 59.272C268.168 60.736 269.344 61.528 270.832 61.528C271.96 61.528 272.68 61.072 272.68 60.352C272.68 59.488 271.624 59.224 271.168 59.104L268.864 58.504C266.488 57.88 265.336 56.488 265.336 54.688C265.336 52.264 267.424 50.608 270.496 50.608C273.184 50.608 275.32 51.904 276.16 54.04L273.472 55.288C273.04 54.16 271.912 53.488 270.496 53.488C269.44 53.488 268.816 53.896 268.816 54.568C268.816 55.36 269.728 55.6 270.16 55.72L272.584 56.368C274.912 56.992 276.16 58.336 276.16 60.208C276.16 62.632 273.976 64.288 270.832 64.288ZM282.529 64L283.585 60.328H280.705V57.208H284.473L285.721 52.888H282.841V49.768H286.609L287.665 46.12H291.265L290.209 49.768H293.809L294.841 46.12H298.441L297.409 49.768H300.289V52.888H296.497L295.273 57.208H298.153V60.328H294.361L293.329 64H289.729L290.761 60.328H287.185L286.129 64H282.529ZM288.073 57.208H291.673L292.897 52.888H289.321L288.073 57.208ZM303.887 64V49.264H300.527V46.144L307.607 46.12V64H303.887Z" fill="#1E1E1E"/>
<path d="M66.048 97.216C63.42 97.216 61.386 95.614 60.738 93.58L62.25 92.914C62.88 94.75 64.266 95.722 66.048 95.722C67.74 95.722 68.856 94.858 68.856 93.616C68.856 92.482 68.208 91.87 66.876 91.474L64.374 90.718C62.232 90.088 61.152 88.738 61.152 87.082C61.152 84.904 62.952 83.374 65.526 83.374C67.992 83.374 69.846 84.832 70.458 86.614L68.964 87.316C68.406 85.732 67.182 84.868 65.544 84.868C63.924 84.868 62.862 85.714 62.862 86.974C62.862 88 63.564 88.792 64.878 89.17L67.272 89.89C69.468 90.556 70.566 91.69 70.566 93.49C70.566 95.704 68.73 97.216 66.048 97.216ZM76.5746 97.108C74.6486 97.108 73.5686 96.01 73.5686 94.084V88.936H71.7146V87.46H72.2006C73.0286 87.46 73.5686 86.902 73.5686 86.056V84.364H75.1166V87.46H77.4206V88.936H75.1166V94.084C75.1166 94.696 75.2246 95.812 76.8626 95.812C77.0606 95.812 77.3306 95.794 77.5286 95.758V97.018C77.2226 97.09 76.8446 97.108 76.5746 97.108ZM85.4658 87.46H87.0138V97H85.5018V95.902C84.9438 96.73 83.9178 97.216 82.7658 97.216C80.6958 97.216 79.1838 95.56 79.1838 93.526V87.46H80.7318V93.238C80.7318 94.75 81.6678 95.722 83.1078 95.722C84.5118 95.722 85.4658 94.732 85.4658 93.238V87.46ZM97.0513 83.59H98.5993V97H97.0873V95.614C96.3853 96.64 95.1073 97.216 93.6673 97.216C90.9493 97.216 88.8433 95.11 88.8433 92.23C88.8433 89.35 90.9673 87.244 93.6493 87.244C95.0893 87.244 96.3673 87.856 97.0513 88.864V83.59ZM93.7573 95.722C95.6473 95.722 97.0513 94.246 97.0513 92.23C97.0513 90.232 95.6473 88.738 93.7573 88.738C91.8673 88.738 90.4813 90.232 90.4813 92.23C90.4813 94.246 91.8673 95.722 93.7573 95.722ZM109.517 91.816C109.517 92.086 109.499 92.392 109.445 92.698H102.047C102.119 94.588 103.541 95.812 105.215 95.812C106.565 95.812 107.447 95.092 107.951 94.12L109.301 94.84C108.707 96.154 107.159 97.216 105.197 97.216C102.461 97.216 100.427 95.092 100.427 92.212C100.427 89.332 102.407 87.244 105.071 87.244C107.789 87.244 109.517 89.386 109.517 91.816ZM102.083 91.366H107.807C107.789 89.782 106.475 88.612 105.071 88.612C103.577 88.612 102.299 89.638 102.083 91.366ZM115.446 87.244C117.516 87.244 119.01 88.72 119.01 90.718V97H117.462V91.222C117.462 89.71 116.544 88.738 115.104 88.738C113.682 88.738 112.728 89.728 112.728 91.222V97H111.18V87.46H112.692V88.558C113.25 87.73 114.276 87.244 115.446 87.244ZM125.196 97.108C123.27 97.108 122.19 96.01 122.19 94.084V88.936H120.336V87.46H120.822C121.65 87.46 122.19 86.902 122.19 86.056V84.364H123.738V87.46H126.042V88.936H123.738V94.084C123.738 94.696 123.846 95.812 125.484 95.812C125.682 95.812 125.952 95.794 126.15 95.758V97.018C125.844 97.09 125.466 97.108 125.196 97.108ZM131.315 97.216C129.443 97.216 127.913 96.226 127.301 94.606L128.615 93.958C129.101 95.164 130.127 95.794 131.315 95.794C132.431 95.794 133.187 95.218 133.187 94.426C133.187 93.742 132.611 93.364 131.729 93.112L130.163 92.68C128.561 92.23 127.733 91.312 127.733 90.016C127.733 88.36 129.065 87.244 131.045 87.244C132.809 87.244 134.213 88.162 134.771 89.656L133.475 90.286C133.079 89.26 132.179 88.666 131.045 88.666C130.019 88.666 129.335 89.17 129.335 89.926C129.335 90.574 129.875 91.006 130.703 91.258L132.323 91.744C133.925 92.212 134.789 93.148 134.789 94.426C134.789 96.082 133.367 97.216 131.315 97.216ZM143.943 97.216C141.189 97.216 139.029 95.11 139.029 92.212C139.029 89.314 141.171 87.244 143.943 87.244C146.715 87.244 148.857 89.314 148.857 92.212C148.857 95.11 146.697 97.216 143.943 97.216ZM143.943 95.722C145.797 95.722 147.219 94.228 147.219 92.23C147.219 90.232 145.797 88.738 143.943 88.738C142.089 88.738 140.667 90.232 140.667 92.23C140.667 94.228 142.089 95.722 143.943 95.722ZM151.65 97V88.936H149.796V87.46H151.65V86.596C151.65 84.544 153.054 83.428 154.782 83.428C155.07 83.428 155.502 83.464 155.718 83.518V84.886C155.52 84.85 155.124 84.832 154.962 84.832C153.918 84.832 153.198 85.426 153.198 86.596V87.46H155.466V88.936H153.198V97H151.65ZM161.477 97.108C159.551 97.108 158.471 96.01 158.471 94.084V88.936H156.617V87.46H157.103C157.931 87.46 158.471 86.902 158.471 86.056V84.364H160.019V87.46H162.323V88.936H160.019V94.084C160.019 94.696 160.127 95.812 161.765 95.812C161.963 95.812 162.233 95.794 162.431 95.758V97.018C162.125 97.09 161.747 97.108 161.477 97.108ZM172.535 91.816C172.535 92.086 172.517 92.392 172.463 92.698H165.065C165.137 94.588 166.559 95.812 168.233 95.812C169.583 95.812 170.465 95.092 170.969 94.12L172.319 94.84C171.725 96.154 170.177 97.216 168.215 97.216C165.479 97.216 163.445 95.092 163.445 92.212C163.445 89.332 165.425 87.244 168.089 87.244C170.807 87.244 172.535 89.386 172.535 91.816ZM165.101 91.366H170.825C170.807 89.782 169.493 88.612 168.089 88.612C166.595 88.612 165.317 89.638 165.101 91.366ZM178.464 87.244C180.534 87.244 182.028 88.72 182.028 90.718V97H180.48V91.222C180.48 89.71 179.562 88.738 178.122 88.738C176.7 88.738 175.746 89.728 175.746 91.222V97H174.198V87.46H175.71V88.558C176.268 87.73 177.294 87.244 178.464 87.244ZM188.265 97V88.936H186.411V87.46H188.265V86.596C188.265 84.544 189.669 83.428 191.397 83.428C191.685 83.428 192.117 83.464 192.333 83.518V84.886C192.135 84.85 191.739 84.832 191.577 84.832C190.533 84.832 189.813 85.426 189.813 86.596V87.46H192.081V88.936H189.813V97H188.265ZM197.522 87.244C199.7 87.244 201.23 88.594 201.23 90.538V97H199.718V95.668C199.07 96.622 197.936 97.216 196.712 97.216C194.678 97.216 193.31 96.028 193.31 94.354C193.31 92.95 194.444 91.978 196.37 91.546L199.682 90.808V90.538C199.682 89.44 198.782 88.72 197.522 88.72C196.37 88.72 195.47 89.332 195.056 90.268L193.67 89.548C194.21 88.252 195.758 87.244 197.522 87.244ZM196.802 95.83C198.476 95.83 199.682 94.57 199.682 92.896V92.068L196.73 92.752C195.65 92.986 194.948 93.58 194.948 94.354C194.948 95.254 195.668 95.83 196.802 95.83ZM207.484 97.216C204.748 97.216 202.714 95.074 202.714 92.212C202.714 89.35 204.748 87.244 207.484 87.244C209.356 87.244 210.94 88.342 211.534 89.764L210.148 90.484C209.68 89.44 208.726 88.738 207.484 88.738C205.684 88.738 204.352 90.214 204.352 92.23C204.352 94.21 205.684 95.722 207.484 95.722C208.726 95.722 209.68 95.02 210.148 93.976L211.534 94.696C210.94 96.1 209.338 97.216 207.484 97.216ZM221.736 91.816C221.736 92.086 221.718 92.392 221.664 92.698H214.266C214.338 94.588 215.76 95.812 217.434 95.812C218.784 95.812 219.666 95.092 220.17 94.12L221.52 94.84C220.926 96.154 219.378 97.216 217.416 97.216C214.68 97.216 212.646 95.092 212.646 92.212C212.646 89.332 214.626 87.244 217.29 87.244C220.008 87.244 221.736 89.386 221.736 91.816ZM214.302 91.366H220.026C220.008 89.782 218.694 88.612 217.29 88.612C215.796 88.612 214.518 89.638 214.302 91.366ZM227.447 97V88.936H225.593V87.46H227.447V86.596C227.447 84.544 228.851 83.428 230.579 83.428C230.867 83.428 231.299 83.464 231.515 83.518V84.886C231.317 84.85 230.921 84.832 230.759 84.832C229.715 84.832 228.995 85.426 228.995 86.596V87.46H231.263V88.936H228.995V97H227.447ZM232.883 85.696V83.59H234.431V85.696H232.883ZM232.883 97V87.46H234.431V97H232.883ZM240.936 87.244C243.006 87.244 244.5 88.72 244.5 90.718V97H242.952V91.222C242.952 89.71 242.034 88.738 240.594 88.738C239.172 88.738 238.218 89.728 238.218 91.222V97H236.67V87.46H238.182V88.558C238.74 87.73 239.766 87.244 240.936 87.244ZM250.362 87.244C252.54 87.244 254.07 88.594 254.07 90.538V97H252.558V95.668C251.91 96.622 250.776 97.216 249.552 97.216C247.518 97.216 246.15 96.028 246.15 94.354C246.15 92.95 247.284 91.978 249.21 91.546L252.522 90.808V90.538C252.522 89.44 251.622 88.72 250.362 88.72C249.21 88.72 248.31 89.332 247.896 90.268L246.51 89.548C247.05 88.252 248.598 87.244 250.362 87.244ZM249.642 95.83C251.316 95.83 252.522 94.57 252.522 92.896V92.068L249.57 92.752C248.49 92.986 247.788 93.58 247.788 94.354C247.788 95.254 248.508 95.83 249.642 95.83ZM260.36 87.244C262.43 87.244 263.924 88.72 263.924 90.718V97H262.376V91.222C262.376 89.71 261.458 88.738 260.018 88.738C258.596 88.738 257.642 89.728 257.642 91.222V97H256.094V87.46H257.606V88.558C258.164 87.73 259.19 87.244 260.36 87.244ZM270.344 97.216C267.608 97.216 265.574 95.074 265.574 92.212C265.574 89.35 267.608 87.244 270.344 87.244C272.216 87.244 273.8 88.342 274.394 89.764L273.008 90.484C272.54 89.44 271.586 88.738 270.344 88.738C268.544 88.738 267.212 90.214 267.212 92.23C267.212 94.21 268.544 95.722 270.344 95.722C271.586 95.722 272.54 95.02 273.008 93.976L274.394 94.696C273.8 96.1 272.198 97.216 270.344 97.216ZM275.901 85.696V83.59H277.449V85.696H275.901ZM275.901 97V87.46H277.449V97H275.901ZM283.356 87.244C285.534 87.244 287.064 88.594 287.064 90.538V97H285.552V95.668C284.904 96.622 283.77 97.216 282.546 97.216C280.512 97.216 279.144 96.028 279.144 94.354C279.144 92.95 280.278 91.978 282.204 91.546L285.516 90.808V90.538C285.516 89.44 284.616 88.72 283.356 88.72C282.204 88.72 281.304 89.332 280.89 90.268L279.504 89.548C280.044 88.252 281.592 87.244 283.356 87.244ZM282.636 95.83C284.31 95.83 285.516 94.57 285.516 92.896V92.068L282.564 92.752C281.484 92.986 280.782 93.58 280.782 94.354C280.782 95.254 281.502 95.83 282.636 95.83ZM289.088 97V83.59H290.636V97H289.088ZM301.034 87.244C303.716 87.244 305.858 89.314 305.858 92.212C305.858 95.11 303.716 97.216 300.998 97.216C299.594 97.216 298.352 96.64 297.65 95.686V100.6H296.102V87.46H297.614V88.918C298.262 87.874 299.558 87.244 301.034 87.244ZM300.944 95.722C302.834 95.722 304.22 94.246 304.22 92.23C304.22 90.214 302.816 88.738 300.944 88.738C299.054 88.738 297.65 90.214 297.65 92.23C297.65 94.246 299.036 95.722 300.944 95.722ZM311.754 87.352H312.528V88.828H311.52C310.152 88.828 309.234 89.728 309.234 91.312V97H307.686V87.46H309.18V88.648C309.684 87.766 310.602 87.352 311.754 87.352ZM322.74 91.816C322.74 92.086 322.722 92.392 322.668 92.698H315.27C315.342 94.588 316.764 95.812 318.438 95.812C319.788 95.812 320.67 95.092 321.174 94.12L322.524 94.84C321.93 96.154 320.382 97.216 318.42 97.216C315.684 97.216 313.65 95.092 313.65 92.212C313.65 89.332 315.63 87.244 318.294 87.244C321.012 87.244 322.74 89.386 322.74 91.816ZM315.306 91.366H321.03C321.012 89.782 319.698 88.612 318.294 88.612C316.8 88.612 315.522 89.638 315.306 91.366ZM327.733 97.216C325.861 97.216 324.331 96.226 323.719 94.606L325.033 93.958C325.519 95.164 326.545 95.794 327.733 95.794C328.849 95.794 329.605 95.218 329.605 94.426C329.605 93.742 329.029 93.364 328.147 93.112L326.581 92.68C324.979 92.23 324.151 91.312 324.151 90.016C324.151 88.36 325.483 87.244 327.463 87.244C329.227 87.244 330.631 88.162 331.189 89.656L329.893 90.286C329.497 89.26 328.597 88.666 327.463 88.666C326.437 88.666 325.753 89.17 325.753 89.926C325.753 90.574 326.293 91.006 327.121 91.258L328.741 91.744C330.343 92.212 331.207 93.148 331.207 94.426C331.207 96.082 329.785 97.216 327.733 97.216ZM336.223 97.216C334.351 97.216 332.821 96.226 332.209 94.606L333.523 93.958C334.009 95.164 335.035 95.794 336.223 95.794C337.339 95.794 338.095 95.218 338.095 94.426C338.095 93.742 337.519 93.364 336.637 93.112L335.071 92.68C333.469 92.23 332.641 91.312 332.641 90.016C332.641 88.36 333.973 87.244 335.953 87.244C337.717 87.244 339.121 88.162 339.679 89.656L338.383 90.286C337.987 89.26 337.087 88.666 335.953 88.666C334.927 88.666 334.243 89.17 334.243 89.926C334.243 90.574 334.783 91.006 335.611 91.258L337.231 91.744C338.833 92.212 339.697 93.148 339.697 94.426C339.697 96.082 338.275 97.216 336.223 97.216ZM347.485 87.46H349.033V97H347.521V95.902C346.963 96.73 345.937 97.216 344.785 97.216C342.715 97.216 341.203 95.56 341.203 93.526V87.46H342.751V93.238C342.751 94.75 343.687 95.722 345.127 95.722C346.531 95.722 347.485 94.732 347.485 93.238V87.46ZM355.471 87.352H356.245V88.828H355.237C353.869 88.828 352.951 89.728 352.951 91.312V97H351.403V87.46H352.897V88.648C353.401 87.766 354.319 87.352 355.471 87.352ZM366.457 91.816C366.457 92.086 366.439 92.392 366.385 92.698H358.987C359.059 94.588 360.481 95.812 362.155 95.812C363.505 95.812 364.387 95.092 364.891 94.12L366.241 94.84C365.647 96.154 364.099 97.216 362.137 97.216C359.401 97.216 357.367 95.092 357.367 92.212C357.367 89.332 359.347 87.244 362.011 87.244C364.729 87.244 366.457 89.386 366.457 91.816ZM359.023 91.366H364.747C364.729 89.782 363.415 88.612 362.011 88.612C360.517 88.612 359.239 89.638 359.023 91.366ZM371.45 97.216C369.578 97.216 368.048 96.226 367.436 94.606L368.75 93.958C369.236 95.164 370.262 95.794 371.45 95.794C372.566 95.794 373.322 95.218 373.322 94.426C373.322 93.742 372.746 93.364 371.864 93.112L370.298 92.68C368.696 92.23 367.868 91.312 367.868 90.016C367.868 88.36 369.2 87.244 371.18 87.244C372.944 87.244 374.348 88.162 374.906 89.656L373.61 90.286C373.214 89.26 372.314 88.666 371.18 88.666C370.154 88.666 369.47 89.17 369.47 89.926C369.47 90.574 370.01 91.006 370.838 91.258L372.458 91.744C374.06 92.212 374.924 93.148 374.924 94.426C374.924 96.082 373.502 97.216 371.45 97.216ZM376.988 99.142L377.69 94.876H379.4L378.14 99.142H376.988ZM389.106 87.244C391.284 87.244 392.814 88.594 392.814 90.538V97H391.302V95.668C390.654 96.622 389.52 97.216 388.296 97.216C386.262 97.216 384.894 96.028 384.894 94.354C384.894 92.95 386.028 91.978 387.954 91.546L391.266 90.808V90.538C391.266 89.44 390.366 88.72 389.106 88.72C387.954 88.72 387.054 89.332 386.64 90.268L385.254 89.548C385.794 88.252 387.342 87.244 389.106 87.244ZM388.386 95.83C390.06 95.83 391.266 94.57 391.266 92.896V92.068L388.314 92.752C387.234 92.986 386.532 93.58 386.532 94.354C386.532 95.254 387.252 95.83 388.386 95.83ZM399.104 87.244C401.174 87.244 402.668 88.72 402.668 90.718V97H401.12V91.222C401.12 89.71 400.202 88.738 398.762 88.738C397.34 88.738 396.386 89.728 396.386 91.222V97H394.838V87.46H396.35V88.558C396.908 87.73 397.934 87.244 399.104 87.244ZM412.526 83.59H414.074V97H412.562V95.614C411.86 96.64 410.582 97.216 409.142 97.216C406.424 97.216 404.318 95.11 404.318 92.23C404.318 89.35 406.442 87.244 409.124 87.244C410.564 87.244 411.842 87.856 412.526 88.864V83.59ZM409.232 95.722C411.122 95.722 412.526 94.246 412.526 92.23C412.526 90.232 411.122 88.738 409.232 88.738C407.342 88.738 405.956 90.232 405.956 92.23C405.956 94.246 407.342 95.722 409.232 95.722ZM65.184 120.108C63.258 120.108 62.178 119.01 62.178 117.084V111.936H60.324V110.46H60.81C61.638 110.46 62.178 109.902 62.178 109.056V107.364H63.726V110.46H66.03V111.936H63.726V117.084C63.726 117.696 63.834 118.812 65.472 118.812C65.67 118.812 65.94 118.794 66.138 118.758V120.018C65.832 120.09 65.454 120.108 65.184 120.108ZM72.2392 110.244C74.3092 110.244 75.8032 111.72 75.8032 113.736V120H74.2552V114.222C74.2552 112.728 73.3372 111.738 71.8972 111.738C70.4752 111.738 69.5212 112.728 69.5212 114.222V120H67.9732V106.59H69.5212V111.504C70.0972 110.712 71.0872 110.244 72.2392 110.244ZM86.5427 114.816C86.5427 115.086 86.5247 115.392 86.4707 115.698H79.0727C79.1447 117.588 80.5667 118.812 82.2407 118.812C83.5907 118.812 84.4727 118.092 84.9767 117.12L86.3267 117.84C85.7327 119.154 84.1847 120.216 82.2227 120.216C79.4867 120.216 77.4527 118.092 77.4527 115.212C77.4527 112.332 79.4327 110.244 82.0967 110.244C84.8147 110.244 86.5427 112.386 86.5427 114.816ZM79.1087 114.366H84.8327C84.8147 112.782 83.5007 111.612 82.0967 111.612C80.6027 111.612 79.3247 112.638 79.1087 114.366ZM94.6293 120.216C92.7573 120.216 91.2273 119.226 90.6153 117.606L91.9293 116.958C92.4153 118.164 93.4413 118.794 94.6293 118.794C95.7453 118.794 96.5013 118.218 96.5013 117.426C96.5013 116.742 95.9253 116.364 95.0433 116.112L93.4773 115.68C91.8753 115.23 91.0473 114.312 91.0473 113.016C91.0473 111.36 92.3793 110.244 94.3593 110.244C96.1233 110.244 97.5273 111.162 98.0853 112.656L96.7893 113.286C96.3933 112.26 95.4933 111.666 94.3593 111.666C93.3333 111.666 92.6493 112.17 92.6493 112.926C92.6493 113.574 93.1893 114.006 94.0173 114.258L95.6373 114.744C97.2393 115.212 98.1033 116.148 98.1033 117.426C98.1033 119.082 96.6813 120.216 94.6293 120.216ZM105.892 110.46H107.44V120H105.928V118.902C105.37 119.73 104.344 120.216 103.192 120.216C101.122 120.216 99.6096 118.56 99.6096 116.526V110.46H101.158V116.238C101.158 117.75 102.094 118.722 103.534 118.722C104.938 118.722 105.892 117.732 105.892 116.238V110.46ZM114.759 110.244C117.441 110.244 119.565 112.35 119.565 115.23C119.565 118.11 117.441 120.216 114.741 120.216C113.319 120.216 112.023 119.64 111.321 118.614V120H109.809V106.59H111.357V111.864C112.023 110.856 113.301 110.244 114.759 110.244ZM114.651 118.722C116.523 118.722 117.927 117.246 117.927 115.23C117.927 113.232 116.523 111.738 114.651 111.738C112.761 111.738 111.357 113.232 111.357 115.23C111.357 117.246 112.761 118.722 114.651 118.722ZM124.723 120.216C122.851 120.216 121.321 119.226 120.709 117.606L122.023 116.958C122.509 118.164 123.535 118.794 124.723 118.794C125.839 118.794 126.595 118.218 126.595 117.426C126.595 116.742 126.019 116.364 125.137 116.112L123.571 115.68C121.969 115.23 121.141 114.312 121.141 113.016C121.141 111.36 122.473 110.244 124.453 110.244C126.217 110.244 127.621 111.162 128.179 112.656L126.883 113.286C126.487 112.26 125.587 111.666 124.453 111.666C123.427 111.666 122.743 112.17 122.743 112.926C122.743 113.574 123.283 114.006 124.111 114.258L125.731 114.744C127.333 115.212 128.197 116.148 128.197 117.426C128.197 119.082 126.775 120.216 124.723 120.216ZM134.113 120.216C131.377 120.216 129.343 118.074 129.343 115.212C129.343 112.35 131.377 110.244 134.113 110.244C135.985 110.244 137.569 111.342 138.163 112.764L136.777 113.484C136.309 112.44 135.355 111.738 134.113 111.738C132.313 111.738 130.981 113.214 130.981 115.23C130.981 117.21 132.313 118.722 134.113 118.722C135.355 118.722 136.309 118.02 136.777 116.976L138.163 117.696C137.569 119.1 135.967 120.216 134.113 120.216ZM143.883 110.352H144.657V111.828H143.649C142.281 111.828 141.363 112.728 141.363 114.312V120H139.815V110.46H141.309V111.648C141.813 110.766 142.731 110.352 143.883 110.352ZM146.175 108.696V106.59H147.723V108.696H146.175ZM146.175 120V110.46H147.723V120H146.175ZM154.89 110.244C157.572 110.244 159.714 112.314 159.714 115.212C159.714 118.11 157.572 120.216 154.854 120.216C153.45 120.216 152.208 119.64 151.506 118.686V123.6H149.958V110.46H151.47V111.918C152.118 110.874 153.414 110.244 154.89 110.244ZM154.8 118.722C156.69 118.722 158.076 117.246 158.076 115.23C158.076 113.214 156.672 111.738 154.8 111.738C152.91 111.738 151.506 113.214 151.506 115.23C151.506 117.246 152.892 118.722 154.8 118.722ZM165.362 120.108C163.436 120.108 162.356 119.01 162.356 117.084V111.936H160.502V110.46H160.988C161.816 110.46 162.356 109.902 162.356 109.056V107.364H163.904V110.46H166.208V111.936H163.904V117.084C163.904 117.696 164.012 118.812 165.65 118.812C165.848 118.812 166.118 118.794 166.316 118.758V120.018C166.01 120.09 165.632 120.108 165.362 120.108ZM168.007 108.696V106.59H169.555V108.696H168.007ZM168.007 120V110.46H169.555V120H168.007ZM176.164 120.216C173.41 120.216 171.25 118.11 171.25 115.212C171.25 112.314 173.392 110.244 176.164 110.244C178.936 110.244 181.078 112.314 181.078 115.212C181.078 118.11 178.918 120.216 176.164 120.216ZM176.164 118.722C178.018 118.722 179.44 117.228 179.44 115.23C179.44 113.232 178.018 111.738 176.164 111.738C174.31 111.738 172.888 113.232 172.888 115.23C172.888 117.228 174.31 118.722 176.164 118.722ZM187.183 110.244C189.253 110.244 190.747 111.72 190.747 113.718V120H189.199V114.222C189.199 112.71 188.281 111.738 186.841 111.738C185.419 111.738 184.465 112.728 184.465 114.222V120H182.917V110.46H184.429V111.558C184.987 110.73 186.013 110.244 187.183 110.244ZM200.26 120.216C197.524 120.216 195.49 118.074 195.49 115.212C195.49 112.35 197.524 110.244 200.26 110.244C202.132 110.244 203.716 111.342 204.31 112.764L202.924 113.484C202.456 112.44 201.502 111.738 200.26 111.738C198.46 111.738 197.128 113.214 197.128 115.23C197.128 117.21 198.46 118.722 200.26 118.722C201.502 118.722 202.456 118.02 202.924 116.976L204.31 117.696C203.716 119.1 202.114 120.216 200.26 120.216ZM210.335 120.216C207.581 120.216 205.421 118.11 205.421 115.212C205.421 112.314 207.563 110.244 210.335 110.244C213.107 110.244 215.249 112.314 215.249 115.212C215.249 118.11 213.089 120.216 210.335 120.216ZM210.335 118.722C212.189 118.722 213.611 117.228 213.611 115.23C213.611 113.232 212.189 111.738 210.335 111.738C208.481 111.738 207.059 113.232 207.059 115.23C207.059 117.228 208.481 118.722 210.335 118.722ZM220.418 120.216C218.546 120.216 217.016 119.226 216.404 117.606L217.718 116.958C218.204 118.164 219.23 118.794 220.418 118.794C221.534 118.794 222.29 118.218 222.29 117.426C222.29 116.742 221.714 116.364 220.832 116.112L219.266 115.68C217.664 115.23 216.836 114.312 216.836 113.016C216.836 111.36 218.168 110.244 220.148 110.244C221.912 110.244 223.316 111.162 223.874 112.656L222.578 113.286C222.182 112.26 221.282 111.666 220.148 111.666C219.122 111.666 218.438 112.17 218.438 112.926C218.438 113.574 218.978 114.006 219.806 114.258L221.426 114.744C223.028 115.212 223.892 116.148 223.892 117.426C223.892 119.082 222.47 120.216 220.418 120.216ZM229.575 120.108C227.649 120.108 226.569 119.01 226.569 117.084V111.936H224.715V110.46H225.201C226.029 110.46 226.569 109.902 226.569 109.056V107.364H228.117V110.46H230.421V111.936H228.117V117.084C228.117 117.696 228.225 118.812 229.863 118.812C230.061 118.812 230.331 118.794 230.529 118.758V120.018C230.223 120.09 229.845 120.108 229.575 120.108ZM235.694 120.216C233.822 120.216 232.292 119.226 231.68 117.606L232.994 116.958C233.48 118.164 234.506 118.794 235.694 118.794C236.81 118.794 237.566 118.218 237.566 117.426C237.566 116.742 236.99 116.364 236.108 116.112L234.542 115.68C232.94 115.23 232.112 114.312 232.112 113.016C232.112 111.36 233.444 110.244 235.424 110.244C237.188 110.244 238.592 111.162 239.15 112.656L237.854 113.286C237.458 112.26 236.558 111.666 235.424 111.666C234.398 111.666 233.714 112.17 233.714 112.926C233.714 113.574 234.254 114.006 235.082 114.258L236.702 114.744C238.304 115.212 239.168 116.148 239.168 117.426C239.168 119.082 237.746 120.216 235.694 120.216ZM248.322 120.216C245.568 120.216 243.408 118.11 243.408 115.212C243.408 112.314 245.55 110.244 248.322 110.244C251.094 110.244 253.236 112.314 253.236 115.212C253.236 118.11 251.076 120.216 248.322 120.216ZM248.322 118.722C250.176 118.722 251.598 117.228 251.598 115.23C251.598 113.232 250.176 111.738 248.322 111.738C246.468 111.738 245.046 113.232 245.046 115.23C245.046 117.228 246.468 118.722 248.322 118.722ZM256.029 120V111.936H254.175V110.46H256.029V109.596C256.029 107.544 257.433 106.428 259.161 106.428C259.449 106.428 259.881 106.464 260.097 106.518V107.886C259.899 107.85 259.503 107.832 259.341 107.832C258.297 107.832 257.577 108.426 257.577 109.596V110.46H259.845V111.936H257.577V120H256.029ZM274.914 110.244C276.894 110.244 278.352 111.702 278.352 113.718V120H276.804V114.222C276.804 112.692 275.922 111.738 274.554 111.738C273.204 111.738 272.304 112.71 272.304 114.222V120H270.756V114.222C270.756 112.692 269.874 111.738 268.506 111.738C267.156 111.738 266.256 112.71 266.256 114.222V120H264.708V110.46H266.22V111.558C266.76 110.73 267.732 110.244 268.866 110.244C270.18 110.244 271.278 110.892 271.854 111.936C272.466 110.856 273.582 110.244 274.914 110.244ZM284.217 110.244C286.395 110.244 287.925 111.594 287.925 113.538V120H286.413V118.668C285.765 119.622 284.631 120.216 283.407 120.216C281.373 120.216 280.005 119.028 280.005 117.354C280.005 115.95 281.139 114.978 283.065 114.546L286.377 113.808V113.538C286.377 112.44 285.477 111.72 284.217 111.72C283.065 111.72 282.165 112.332 281.751 113.268L280.365 112.548C280.905 111.252 282.453 110.244 284.217 110.244ZM283.497 118.83C285.171 118.83 286.377 117.57 286.377 115.896V115.068L283.425 115.752C282.345 115.986 281.643 116.58 281.643 117.354C281.643 118.254 282.363 118.83 283.497 118.83ZM294.216 110.244C296.286 110.244 297.78 111.72 297.78 113.718V120H296.232V114.222C296.232 112.71 295.314 111.738 293.874 111.738C292.452 111.738 291.498 112.728 291.498 114.222V120H289.95V110.46H291.462V111.558C292.02 110.73 293.046 110.244 294.216 110.244ZM306.525 110.442H308.325L303.915 121.188C303.429 122.394 302.745 123.906 300.513 123.906C300.081 123.906 299.613 123.852 299.253 123.708V122.322C299.433 122.376 299.865 122.43 300.243 122.43C301.647 122.43 302.007 121.566 302.295 120.9L302.709 119.91L298.893 110.442H300.657L303.591 117.822L306.525 110.442ZM323.095 110.244C325.075 110.244 326.533 111.702 326.533 113.718V120H324.985V114.222C324.985 112.692 324.103 111.738 322.735 111.738C321.385 111.738 320.485 112.71 320.485 114.222V120H318.937V114.222C318.937 112.692 318.055 111.738 316.687 111.738C315.337 111.738 314.437 112.71 314.437 114.222V120H312.889V110.46H314.401V111.558C314.941 110.73 315.913 110.244 317.047 110.244C318.361 110.244 319.459 110.892 320.035 111.936C320.647 110.856 321.763 110.244 323.095 110.244ZM337.277 114.816C337.277 115.086 337.259 115.392 337.205 115.698H329.807C329.879 117.588 331.301 118.812 332.975 118.812C334.325 118.812 335.207 118.092 335.711 117.12L337.061 117.84C336.467 119.154 334.919 120.216 332.957 120.216C330.221 120.216 328.187 118.092 328.187 115.212C328.187 112.332 330.167 110.244 332.831 110.244C335.549 110.244 337.277 112.386 337.277 114.816ZM329.843 114.366H335.567C335.549 112.782 334.235 111.612 332.831 111.612C331.337 111.612 330.059 112.638 329.843 114.366ZM343.206 110.244C345.276 110.244 346.77 111.72 346.77 113.718V120H345.222V114.222C345.222 112.71 344.304 111.738 342.864 111.738C341.442 111.738 340.488 112.728 340.488 114.222V120H338.94V110.46H340.452V111.558C341.01 110.73 342.036 110.244 343.206 110.244ZM352.955 120.108C351.029 120.108 349.949 119.01 349.949 117.084V111.936H348.095V110.46H348.581C349.409 110.46 349.949 109.902 349.949 109.056V107.364H351.497V110.46H353.801V111.936H351.497V117.084C351.497 117.696 351.605 118.812 353.243 118.812C353.441 118.812 353.711 118.794 353.909 118.758V120.018C353.603 120.09 353.225 120.108 352.955 120.108ZM359.417 110.244C361.595 110.244 363.125 111.594 363.125 113.538V120H361.613V118.668C360.965 119.622 359.831 120.216 358.607 120.216C356.573 120.216 355.205 119.028 355.205 117.354C355.205 115.95 356.339 114.978 358.265 114.546L361.577 113.808V113.538C361.577 112.44 360.677 111.72 359.417 111.72C358.265 111.72 357.365 112.332 356.951 113.268L355.565 112.548C356.105 111.252 357.653 110.244 359.417 110.244ZM358.697 118.83C360.371 118.83 361.577 117.57 361.577 115.896V115.068L358.625 115.752C357.545 115.986 356.843 116.58 356.843 117.354C356.843 118.254 357.563 118.83 358.697 118.83ZM365.149 120V106.59H366.697V120H365.149ZM376.429 110.244C378.499 110.244 379.993 111.72 379.993 113.736V120H378.445V114.222C378.445 112.728 377.527 111.738 376.087 111.738C374.665 111.738 373.711 112.728 373.711 114.222V120H372.163V106.59H373.711V111.504C374.287 110.712 375.277 110.244 376.429 110.244ZM390.732 114.816C390.732 115.086 390.714 115.392 390.66 115.698H383.262C383.334 117.588 384.756 118.812 386.43 118.812C387.78 118.812 388.662 118.092 389.166 117.12L390.516 117.84C389.922 119.154 388.374 120.216 386.412 120.216C383.676 120.216 381.642 118.092 381.642 115.212C381.642 112.332 383.622 110.244 386.286 110.244C389.004 110.244 390.732 112.386 390.732 114.816ZM383.298 114.366H389.022C389.004 112.782 387.69 111.612 386.286 111.612C384.792 111.612 383.514 112.638 383.298 114.366ZM396.067 110.244C398.245 110.244 399.775 111.594 399.775 113.538V120H398.263V118.668C397.615 119.622 396.481 120.216 395.257 120.216C393.223 120.216 391.855 119.028 391.855 117.354C391.855 115.95 392.989 114.978 394.915 114.546L398.227 113.808V113.538C398.227 112.44 397.327 111.72 396.067 111.72C394.915 111.72 394.015 112.332 393.601 113.268L392.215 112.548C392.755 111.252 394.303 110.244 396.067 110.244ZM395.347 118.83C397.021 118.83 398.227 117.57 398.227 115.896V115.068L395.275 115.752C394.195 115.986 393.493 116.58 393.493 117.354C393.493 118.254 394.213 118.83 395.347 118.83ZM401.799 120V106.59H403.347V120H401.799ZM409.715 120.108C407.789 120.108 406.709 119.01 406.709 117.084V111.936H404.855V110.46H405.341C406.169 110.46 406.709 109.902 406.709 109.056V107.364H408.257V110.46H410.561V111.936H408.257V117.084C408.257 117.696 408.365 118.812 410.003 118.812C410.201 118.812 410.471 118.794 410.669 118.758V120.018C410.363 120.09 409.985 120.108 409.715 120.108ZM416.77 110.244C418.84 110.244 420.334 111.72 420.334 113.736V120H418.786V114.222C418.786 112.728 417.868 111.738 416.428 111.738C415.006 111.738 414.052 112.728 414.052 114.222V120H412.504V106.59H414.052V111.504C414.628 110.712 415.618 110.244 416.77 110.244ZM64.86 133.244C67.038 133.244 68.568 134.594 68.568 136.538V143H67.056V141.668C66.408 142.622 65.274 143.216 64.05 143.216C62.016 143.216 60.648 142.028 60.648 140.354C60.648 138.95 61.782 137.978 63.708 137.546L67.02 136.808V136.538C67.02 135.44 66.12 134.72 64.86 134.72C63.708 134.72 62.808 135.332 62.394 136.268L61.008 135.548C61.548 134.252 63.096 133.244 64.86 133.244ZM64.14 141.83C65.814 141.83 67.02 140.57 67.02 138.896V138.068L64.068 138.752C62.988 138.986 62.286 139.58 62.286 140.354C62.286 141.254 63.006 141.83 64.14 141.83ZM75.5243 133.244C78.2063 133.244 80.3483 135.314 80.3483 138.212C80.3483 141.11 78.2063 143.216 75.4883 143.216C74.0843 143.216 72.8423 142.64 72.1403 141.686V146.6H70.5923V133.46H72.1043V134.918C72.7523 133.874 74.0483 133.244 75.5243 133.244ZM75.4343 141.722C77.3243 141.722 78.7103 140.246 78.7103 138.23C78.7103 136.214 77.3063 134.738 75.4343 134.738C73.5443 134.738 72.1403 136.214 72.1403 138.23C72.1403 140.246 73.5263 141.722 75.4343 141.722ZM87.1083 133.244C89.7903 133.244 91.9323 135.314 91.9323 138.212C91.9323 141.11 89.7903 143.216 87.0723 143.216C85.6683 143.216 84.4263 142.64 83.7243 141.686V146.6H82.1763V133.46H83.6883V134.918C84.3363 133.874 85.6323 133.244 87.1083 133.244ZM87.0183 141.722C88.9083 141.722 90.2943 140.246 90.2943 138.23C90.2943 136.214 88.8903 134.738 87.0183 134.738C85.1283 134.738 83.7243 136.214 83.7243 138.23C83.7243 140.246 85.1103 141.722 87.0183 141.722ZM97.0903 143.216C95.2183 143.216 93.6883 142.226 93.0763 140.606L94.3903 139.958C94.8763 141.164 95.9023 141.794 97.0903 141.794C98.2063 141.794 98.9623 141.218 98.9623 140.426C98.9623 139.742 98.3863 139.364 97.5043 139.112L95.9383 138.68C94.3363 138.23 93.5083 137.312 93.5083 136.016C93.5083 134.36 94.8403 133.244 96.8203 133.244C98.5843 133.244 99.9883 134.162 100.546 135.656L99.2503 136.286C98.8543 135.26 97.9543 134.666 96.8203 134.666C95.7943 134.666 95.1103 135.17 95.1103 135.926C95.1103 136.574 95.6503 137.006 96.4783 137.258L98.0983 137.744C99.7003 138.212 100.564 139.148 100.564 140.426C100.564 142.082 99.1423 143.216 97.0903 143.216ZM109.574 143.216C106.838 143.216 104.804 141.074 104.804 138.212C104.804 135.35 106.838 133.244 109.574 133.244C111.446 133.244 113.03 134.342 113.624 135.764L112.238 136.484C111.77 135.44 110.816 134.738 109.574 134.738C107.774 134.738 106.442 136.214 106.442 138.23C106.442 140.21 107.774 141.722 109.574 141.722C110.816 141.722 111.77 141.02 112.238 139.976L113.624 140.696C113.03 142.1 111.428 143.216 109.574 143.216ZM118.948 133.244C121.126 133.244 122.656 134.594 122.656 136.538V143H121.144V141.668C120.496 142.622 119.362 143.216 118.138 143.216C116.104 143.216 114.736 142.028 114.736 140.354C114.736 138.95 115.87 137.978 117.796 137.546L121.108 136.808V136.538C121.108 135.44 120.208 134.72 118.948 134.72C117.796 134.72 116.896 135.332 116.482 136.268L115.096 135.548C115.636 134.252 117.184 133.244 118.948 133.244ZM118.228 141.83C119.902 141.83 121.108 140.57 121.108 138.896V138.068L118.156 138.752C117.076 138.986 116.374 139.58 116.374 140.354C116.374 141.254 117.094 141.83 118.228 141.83ZM128.946 133.244C131.016 133.244 132.51 134.72 132.51 136.718V143H130.962V137.222C130.962 135.71 130.044 134.738 128.604 134.738C127.182 134.738 126.228 135.728 126.228 137.222V143H124.68V133.46H126.192V134.558C126.75 133.73 127.776 133.244 128.946 133.244ZM142.743 133.244C145.425 133.244 147.549 135.35 147.549 138.23C147.549 141.11 145.425 143.216 142.725 143.216C141.303 143.216 140.007 142.64 139.305 141.614V143H137.793V129.59H139.341V134.864C140.007 133.856 141.285 133.244 142.743 133.244ZM142.635 141.722C144.507 141.722 145.911 140.246 145.911 138.23C145.911 136.232 144.507 134.738 142.635 134.738C140.745 134.738 139.341 136.232 139.341 138.23C139.341 140.246 140.745 141.722 142.635 141.722ZM157.927 137.816C157.927 138.086 157.909 138.392 157.855 138.698H150.457C150.529 140.588 151.951 141.812 153.625 141.812C154.975 141.812 155.857 141.092 156.361 140.12L157.711 140.84C157.117 142.154 155.569 143.216 153.607 143.216C150.871 143.216 148.837 141.092 148.837 138.212C148.837 135.332 150.817 133.244 153.481 133.244C156.199 133.244 157.927 135.386 157.927 137.816ZM150.493 137.366H156.217C156.199 135.782 154.885 134.612 153.481 134.612C151.987 134.612 150.709 135.638 150.493 137.366ZM166.356 133.244C168.534 133.244 170.064 134.594 170.064 136.538V143H168.552V141.668C167.904 142.622 166.77 143.216 165.546 143.216C163.512 143.216 162.144 142.028 162.144 140.354C162.144 138.95 163.278 137.978 165.204 137.546L168.516 136.808V136.538C168.516 135.44 167.616 134.72 166.356 134.72C165.204 134.72 164.304 135.332 163.89 136.268L162.504 135.548C163.044 134.252 164.592 133.244 166.356 133.244ZM165.636 141.83C167.31 141.83 168.516 140.57 168.516 138.896V138.068L165.564 138.752C164.484 138.986 163.782 139.58 163.782 140.354C163.782 141.254 164.502 141.83 165.636 141.83ZM176.354 133.244C178.424 133.244 179.918 134.72 179.918 136.718V143H178.37V137.222C178.37 135.71 177.452 134.738 176.012 134.738C174.59 134.738 173.636 135.728 173.636 137.222V143H172.088V133.46H173.6V134.558C174.158 133.73 175.184 133.244 176.354 133.244ZM188.874 133.244C191.052 133.244 192.582 134.594 192.582 136.538V143H191.07V141.668C190.422 142.622 189.288 143.216 188.064 143.216C186.03 143.216 184.662 142.028 184.662 140.354C184.662 138.95 185.796 137.978 187.722 137.546L191.034 136.808V136.538C191.034 135.44 190.134 134.72 188.874 134.72C187.722 134.72 186.822 135.332 186.408 136.268L185.022 135.548C185.562 134.252 187.11 133.244 188.874 133.244ZM188.154 141.83C189.828 141.83 191.034 140.57 191.034 138.896V138.068L188.082 138.752C187.002 138.986 186.3 139.58 186.3 140.354C186.3 141.254 187.02 141.83 188.154 141.83ZM202.274 129.59H203.822V143H202.31V141.614C201.608 142.64 200.33 143.216 198.89 143.216C196.172 143.216 194.066 141.11 194.066 138.23C194.066 135.35 196.19 133.244 198.872 133.244C200.312 133.244 201.59 133.856 202.274 134.864V129.59ZM198.98 141.722C200.87 141.722 202.274 140.246 202.274 138.23C202.274 136.232 200.87 134.738 198.98 134.738C197.09 134.738 195.704 136.232 195.704 138.23C195.704 140.246 197.09 141.722 198.98 141.722ZM213.858 129.59H215.406V143H213.894V141.614C213.192 142.64 211.914 143.216 210.474 143.216C207.756 143.216 205.65 141.11 205.65 138.23C205.65 135.35 207.774 133.244 210.456 133.244C211.896 133.244 213.174 133.856 213.858 134.864V129.59ZM210.564 141.722C212.454 141.722 213.858 140.246 213.858 138.23C213.858 136.232 212.454 134.738 210.564 134.738C208.674 134.738 207.288 136.232 207.288 138.23C207.288 140.246 208.674 141.722 210.564 141.722ZM217.63 131.696V129.59H219.178V131.696H217.63ZM217.63 143V133.46H219.178V143H217.63ZM225.409 143.108C223.483 143.108 222.403 142.01 222.403 140.084V134.936H220.549V133.46H221.035C221.863 133.46 222.403 132.902 222.403 132.056V130.364H223.951V133.46H226.255V134.936H223.951V140.084C223.951 140.696 224.059 141.812 225.697 141.812C225.895 141.812 226.165 141.794 226.363 141.758V143.018C226.057 143.09 225.679 143.108 225.409 143.108ZM228.054 131.696V129.59H229.602V131.696H228.054ZM228.054 143V133.46H229.602V143H228.054ZM236.21 143.216C233.456 143.216 231.296 141.11 231.296 138.212C231.296 135.314 233.438 133.244 236.21 133.244C238.982 133.244 241.124 135.314 241.124 138.212C241.124 141.11 238.964 143.216 236.21 143.216ZM236.21 141.722C238.064 141.722 239.486 140.228 239.486 138.23C239.486 136.232 238.064 134.738 236.21 134.738C234.356 134.738 232.934 136.232 232.934 138.23C232.934 140.228 234.356 141.722 236.21 141.722ZM247.229 133.244C249.299 133.244 250.793 134.72 250.793 136.718V143H249.245V137.222C249.245 135.71 248.327 134.738 246.887 134.738C245.465 134.738 244.511 135.728 244.511 137.222V143H242.963V133.46H244.475V134.558C245.033 133.73 246.059 133.244 247.229 133.244ZM256.655 133.244C258.833 133.244 260.363 134.594 260.363 136.538V143H258.851V141.668C258.203 142.622 257.069 143.216 255.845 143.216C253.811 143.216 252.443 142.028 252.443 140.354C252.443 138.95 253.577 137.978 255.503 137.546L258.815 136.808V136.538C258.815 135.44 257.915 134.72 256.655 134.72C255.503 134.72 254.603 135.332 254.189 136.268L252.803 135.548C253.343 134.252 254.891 133.244 256.655 133.244ZM255.935 141.83C257.609 141.83 258.815 140.57 258.815 138.896V138.068L255.863 138.752C254.783 138.986 254.081 139.58 254.081 140.354C254.081 141.254 254.801 141.83 255.935 141.83ZM262.387 143V129.59H263.935V143H262.387ZM274.351 133.244C277.033 133.244 279.157 135.35 279.157 138.23C279.157 141.11 277.033 143.216 274.333 143.216C272.911 143.216 271.615 142.64 270.913 141.614V143H269.401V129.59H270.949V134.864C271.615 133.856 272.893 133.244 274.351 133.244ZM274.243 141.722C276.115 141.722 277.519 140.246 277.519 138.23C277.519 136.232 276.115 134.738 274.243 134.738C272.353 134.738 270.949 136.232 270.949 138.23C270.949 140.246 272.353 141.722 274.243 141.722ZM287.087 133.46H288.635V143H287.123V141.902C286.565 142.73 285.539 143.216 284.387 143.216C282.317 143.216 280.805 141.56 280.805 139.526V133.46H282.353V139.238C282.353 140.75 283.289 141.722 284.729 141.722C286.133 141.722 287.087 140.732 287.087 139.238V133.46ZM295.072 133.352H295.846V134.828H294.838C293.47 134.828 292.552 135.728 292.552 137.312V143H291.004V133.46H292.498V134.648C293.002 133.766 293.92 133.352 295.072 133.352ZM305.176 129.59H306.724V143H305.212V141.614C304.51 142.64 303.232 143.216 301.792 143.216C299.074 143.216 296.968 141.11 296.968 138.23C296.968 135.35 299.092 133.244 301.774 133.244C303.214 133.244 304.492 133.856 305.176 134.864V129.59ZM301.882 141.722C303.772 141.722 305.176 140.246 305.176 138.23C305.176 136.232 303.772 134.738 301.882 134.738C299.992 134.738 298.606 136.232 298.606 138.23C298.606 140.246 299.992 141.722 301.882 141.722ZM317.642 137.816C317.642 138.086 317.624 138.392 317.57 138.698H310.172C310.244 140.588 311.666 141.812 313.34 141.812C314.69 141.812 315.572 141.092 316.076 140.12L317.426 140.84C316.832 142.154 315.284 143.216 313.322 143.216C310.586 143.216 308.552 141.092 308.552 138.212C308.552 135.332 310.532 133.244 313.196 133.244C315.914 133.244 317.642 135.386 317.642 137.816ZM310.208 137.366H315.932C315.914 135.782 314.6 134.612 313.196 134.612C311.702 134.612 310.424 135.638 310.208 137.366ZM323.571 133.244C325.641 133.244 327.135 134.72 327.135 136.718V143H325.587V137.222C325.587 135.71 324.669 134.738 323.229 134.738C321.807 134.738 320.853 135.728 320.853 137.222V143H319.305V133.46H320.817V134.558C321.375 133.73 322.401 133.244 323.571 133.244ZM336.414 143.108C334.488 143.108 333.408 142.01 333.408 140.084V134.936H331.554V133.46H332.04C332.868 133.46 333.408 132.902 333.408 132.056V130.364H334.956V133.46H337.26V134.936H334.956V140.084C334.956 140.696 335.064 141.812 336.702 141.812C336.9 141.812 337.17 141.794 337.368 141.758V143.018C337.062 143.09 336.684 143.108 336.414 143.108ZM343.47 133.244C345.54 133.244 347.034 134.72 347.034 136.736V143H345.486V137.222C345.486 135.728 344.568 134.738 343.128 134.738C341.706 134.738 340.752 135.728 340.752 137.222V143H339.204V129.59H340.752V134.504C341.328 133.712 342.318 133.244 343.47 133.244ZM357.773 137.816C357.773 138.086 357.755 138.392 357.701 138.698H350.303C350.375 140.588 351.797 141.812 353.471 141.812C354.821 141.812 355.703 141.092 356.207 140.12L357.557 140.84C356.963 142.154 355.415 143.216 353.453 143.216C350.717 143.216 348.683 141.092 348.683 138.212C348.683 135.332 350.663 133.244 353.327 133.244C356.045 133.244 357.773 135.386 357.773 137.816ZM350.339 137.366H356.063C356.045 135.782 354.731 134.612 353.327 134.612C351.833 134.612 350.555 135.638 350.339 137.366ZM366.168 133.442H367.968L363.558 144.188C363.072 145.394 362.388 146.906 360.156 146.906C359.724 146.906 359.256 146.852 358.896 146.708V145.322C359.076 145.376 359.508 145.43 359.886 145.43C361.29 145.43 361.65 144.566 361.938 143.9L362.352 142.91L358.536 133.442H360.3L363.234 140.822L366.168 133.442ZM376.762 143.216C374.026 143.216 371.992 141.074 371.992 138.212C371.992 135.35 374.026 133.244 376.762 133.244C378.634 133.244 380.218 134.342 380.812 135.764L379.426 136.484C378.958 135.44 378.004 134.738 376.762 134.738C374.962 134.738 373.63 136.214 373.63 138.23C373.63 140.21 374.962 141.722 376.762 141.722C378.004 141.722 378.958 141.02 379.426 139.976L380.812 140.696C380.218 142.1 378.616 143.216 376.762 143.216ZM386.135 133.244C388.313 133.244 389.843 134.594 389.843 136.538V143H388.331V141.668C387.683 142.622 386.549 143.216 385.325 143.216C383.291 143.216 381.923 142.028 381.923 140.354C381.923 138.95 383.057 137.978 384.983 137.546L388.295 136.808V136.538C388.295 135.44 387.395 134.72 386.135 134.72C384.983 134.72 384.083 135.332 383.669 136.268L382.283 135.548C382.823 134.252 384.371 133.244 386.135 133.244ZM385.415 141.83C387.089 141.83 388.295 140.57 388.295 138.896V138.068L385.343 138.752C384.263 138.986 383.561 139.58 383.561 140.354C383.561 141.254 384.281 141.83 385.415 141.83ZM396.134 133.244C398.204 133.244 399.698 134.72 399.698 136.718V143H398.15V137.222C398.15 135.71 397.232 134.738 395.792 134.738C394.37 134.738 393.416 135.728 393.416 137.222V143H391.868V133.46H393.38V134.558C393.938 133.73 394.964 133.244 396.134 133.244ZM402.445 134.36V129.59H404.065V134.36H402.445ZM410.998 143.108C409.072 143.108 407.992 142.01 407.992 140.084V134.936H406.138V133.46H406.624C407.452 133.46 407.992 132.902 407.992 132.056V130.364H409.54V133.46H411.844V134.936H409.54V140.084C409.54 140.696 409.648 141.812 411.286 141.812C411.484 141.812 411.754 141.794 411.952 141.758V143.018C411.646 143.09 411.268 143.108 410.998 143.108ZM64.86 164.244C67.038 164.244 68.568 165.594 68.568 167.538V174H67.056V172.668C66.408 173.622 65.274 174.216 64.05 174.216C62.016 174.216 60.648 173.028 60.648 171.354C60.648 169.95 61.782 168.978 63.708 168.546L67.02 167.808V167.538C67.02 166.44 66.12 165.72 64.86 165.72C63.708 165.72 62.808 166.332 62.394 167.268L61.008 166.548C61.548 165.252 63.096 164.244 64.86 164.244ZM64.14 172.83C65.814 172.83 67.02 171.57 67.02 169.896V169.068L64.068 169.752C62.988 169.986 62.286 170.58 62.286 171.354C62.286 172.254 63.006 172.83 64.14 172.83ZM71.5463 174V165.936H69.6923V164.46H71.5463V163.596C71.5463 161.544 72.9503 160.428 74.6783 160.428C74.9663 160.428 75.3983 160.464 75.6143 160.518V161.886C75.4163 161.85 75.0203 161.832 74.8583 161.832C73.8143 161.832 73.0943 162.426 73.0943 163.596V164.46H75.3623V165.936H73.0943V174H71.5463ZM78.0854 174V165.936H76.2314V164.46H78.0854V163.596C78.0854 161.544 79.4894 160.428 81.2174 160.428C81.5054 160.428 81.9374 160.464 82.1534 160.518V161.886C81.9554 161.85 81.5594 161.832 81.3974 161.832C80.3534 161.832 79.6334 162.426 79.6334 163.596V164.46H81.9014V165.936H79.6334V174H78.0854ZM87.5698 174.216C84.8158 174.216 82.6558 172.11 82.6558 169.212C82.6558 166.314 84.7978 164.244 87.5698 164.244C90.3418 164.244 92.4838 166.314 92.4838 169.212C92.4838 172.11 90.3238 174.216 87.5698 174.216ZM87.5698 172.722C89.4238 172.722 90.8458 171.228 90.8458 169.23C90.8458 167.232 89.4238 165.738 87.5698 165.738C85.7158 165.738 84.2938 167.232 84.2938 169.23C84.2938 171.228 85.7158 172.722 87.5698 172.722ZM98.3908 164.352H99.1648V165.828H98.1568C96.7888 165.828 95.8708 166.728 95.8708 168.312V174H94.3228V164.46H95.8168V165.648C96.3208 164.766 97.2388 164.352 98.3908 164.352ZM108.495 160.59H110.043V174H108.531V172.614C107.829 173.64 106.551 174.216 105.111 174.216C102.393 174.216 100.287 172.11 100.287 169.23C100.287 166.35 102.411 164.244 105.093 164.244C106.533 164.244 107.811 164.856 108.495 165.864V160.59ZM105.201 172.722C107.091 172.722 108.495 171.246 108.495 169.23C108.495 167.232 107.091 165.738 105.201 165.738C103.311 165.738 101.925 167.232 101.925 169.23C101.925 171.246 103.311 172.722 105.201 172.722ZM112.969 174V171.876H114.661V174H112.969ZM121.134 174V156.12H124.158V164.136H132.126V156.12H135.174V174H132.126V166.8H124.158V174H121.134ZM144.239 174.288C140.447 174.288 137.447 171.432 137.447 167.52C137.447 163.608 140.423 160.776 144.239 160.776C148.031 160.776 151.031 163.608 151.031 167.52C151.031 171.432 148.007 174.288 144.239 174.288ZM144.239 171.624C146.423 171.624 148.031 169.92 148.031 167.544C148.031 165.168 146.423 163.44 144.239 163.44C142.031 163.44 140.447 165.168 140.447 167.544C140.447 169.92 142.031 171.624 144.239 171.624ZM168.799 161.064H171.871L167.383 174H164.815L161.767 164.736L158.695 174H156.103L151.639 161.064H154.687L157.423 169.752L160.159 161.064H163.351L166.087 169.752L168.799 161.064ZM183.611 174.288C179.819 174.288 176.963 171.384 176.963 167.52C176.963 163.656 179.795 160.776 183.611 160.776C186.347 160.776 188.603 162.312 189.395 164.496L186.899 165.744C186.395 164.352 185.171 163.44 183.611 163.44C181.499 163.44 179.963 165.144 179.963 167.544C179.963 169.896 181.499 171.624 183.611 171.624C185.195 171.624 186.395 170.736 186.899 169.32L189.395 170.592C188.627 172.704 186.371 174.288 183.611 174.288ZM196.462 160.776C199.606 160.776 201.766 162.672 201.766 165.36V174H199.054V172.56C198.094 173.712 196.774 174.288 195.214 174.288C192.334 174.288 190.51 172.656 190.51 170.448C190.51 168.528 192.022 167.256 194.638 166.68L198.886 165.768V165.36C198.886 164.16 197.902 163.368 196.462 163.368C195.07 163.368 193.966 164.136 193.486 165.36L190.99 164.112C191.734 162.144 193.894 160.776 196.462 160.776ZM195.55 172.008C197.47 172.008 198.886 170.616 198.886 168.792V167.952L195.214 168.768C194.134 169.008 193.51 169.632 193.51 170.424C193.51 171.408 194.302 172.008 195.55 172.008ZM210.458 160.776C213.338 160.776 215.33 162.768 215.33 165.6V174H212.45V166.32C212.45 164.568 211.346 163.44 209.714 163.44C208.058 163.44 206.954 164.568 206.954 166.32V174H204.074V161.064H206.786V162.624C207.506 161.424 208.85 160.776 210.458 160.776ZM238.057 161.064H241.129L236.641 174H234.073L231.025 164.736L227.953 174H225.361L220.897 161.064H223.945L226.681 169.752L229.417 161.064H232.609L235.345 169.752L238.057 161.064ZM254.416 167.064C254.416 167.52 254.368 167.976 254.272 168.36H244.768C244.912 170.424 246.424 171.744 248.416 171.744C249.952 171.744 250.984 171 251.56 169.944L253.936 171.096C253.144 172.944 251.032 174.288 248.392 174.288C244.48 174.288 241.768 171.312 241.768 167.52C241.768 163.632 244.528 160.776 248.176 160.776C251.824 160.776 254.416 163.632 254.416 167.064ZM244.816 166.128H251.32C251.224 164.4 249.832 163.176 248.176 163.176C246.496 163.176 245.152 164.232 244.816 166.128ZM266.392 174.288C262.6 174.288 259.744 171.384 259.744 167.52C259.744 163.656 262.576 160.776 266.392 160.776C269.128 160.776 271.384 162.312 272.176 164.496L269.68 165.744C269.176 164.352 267.952 163.44 266.392 163.44C264.28 163.44 262.744 165.144 262.744 167.544C262.744 169.896 264.28 171.624 266.392 171.624C267.976 171.624 269.176 170.736 269.68 169.32L272.176 170.592C271.408 172.704 269.152 174.288 266.392 174.288ZM280.227 160.92H281.427V163.512H279.867C278.091 163.512 276.891 164.664 276.891 166.68V174H274.011V161.064H276.723V162.864C277.395 161.448 278.643 160.92 280.227 160.92ZM295.15 167.064C295.15 167.52 295.102 167.976 295.006 168.36H285.502C285.646 170.424 287.158 171.744 289.15 171.744C290.686 171.744 291.718 171 292.294 169.944L294.67 171.096C293.878 172.944 291.766 174.288 289.126 174.288C285.214 174.288 282.502 171.312 282.502 167.52C282.502 163.632 285.262 160.776 288.91 160.776C292.558 160.776 295.15 163.632 295.15 167.064ZM285.55 166.128H292.054C291.958 164.4 290.566 163.176 288.91 163.176C287.23 163.176 285.886 164.232 285.55 166.128ZM302.212 160.776C305.356 160.776 307.516 162.672 307.516 165.36V174H304.804V172.56C303.844 173.712 302.524 174.288 300.964 174.288C298.084 174.288 296.26 172.656 296.26 170.448C296.26 168.528 297.772 167.256 300.388 166.68L304.636 165.768V165.36C304.636 164.16 303.652 163.368 302.212 163.368C300.82 163.368 299.716 164.136 299.236 165.36L296.74 164.112C297.484 162.144 299.644 160.776 302.212 160.776ZM301.3 172.008C303.22 172.008 304.636 170.616 304.636 168.792V167.952L300.964 168.768C299.884 169.008 299.26 169.632 299.26 170.424C299.26 171.408 300.052 172.008 301.3 172.008ZM315.656 174.144C312.752 174.144 311.12 172.512 311.12 169.656V163.656H308.768V161.064H309.152C310.4 161.064 311.12 160.368 311.12 159.12V157.056H314V161.064H317.072V163.656H314V169.656C314 170.76 314.456 171.792 316.28 171.792C316.52 171.792 316.832 171.768 317.144 171.72V174.024C316.688 174.096 316.112 174.144 315.656 174.144ZM330.916 167.064C330.916 167.52 330.868 167.976 330.772 168.36H321.268C321.412 170.424 322.924 171.744 324.916 171.744C326.452 171.744 327.484 171 328.06 169.944L330.436 171.096C329.644 172.944 327.532 174.288 324.892 174.288C320.98 174.288 318.268 171.312 318.268 167.52C318.268 163.632 321.028 160.776 324.676 160.776C328.324 160.776 330.916 163.632 330.916 167.064ZM321.316 166.128H327.82C327.724 164.4 326.332 163.176 324.676 163.176C322.996 163.176 321.652 164.232 321.316 166.128ZM342.196 160.776C345.34 160.776 347.5 162.672 347.5 165.36V174H344.788V172.56C343.828 173.712 342.508 174.288 340.948 174.288C338.068 174.288 336.244 172.656 336.244 170.448C336.244 168.528 337.756 167.256 340.372 166.68L344.62 165.768V165.36C344.62 164.16 343.636 163.368 342.196 163.368C340.804 163.368 339.7 164.136 339.22 165.36L336.724 164.112C337.468 162.144 339.628 160.776 342.196 160.776ZM341.284 172.008C343.204 172.008 344.62 170.616 344.62 168.792V167.952L340.948 168.768C339.868 169.008 339.244 169.632 339.244 170.424C339.244 171.408 340.036 172.008 341.284 172.008ZM356.192 160.776C359.072 160.776 361.064 162.768 361.064 165.6V174H358.184V166.32C358.184 164.568 357.08 163.44 355.448 163.44C353.792 163.44 352.688 164.568 352.688 166.32V174H349.808V161.064H352.52V162.624C353.24 161.424 354.584 160.776 356.192 160.776ZM66.624 191.776C69.768 191.776 71.928 193.672 71.928 196.36V205H69.216V203.56C68.256 204.712 66.936 205.288 65.376 205.288C62.496 205.288 60.672 203.656 60.672 201.448C60.672 199.528 62.184 198.256 64.8 197.68L69.048 196.768V196.36C69.048 195.16 68.064 194.368 66.624 194.368C65.232 194.368 64.128 195.136 63.648 196.36L61.152 195.112C61.896 193.144 64.056 191.776 66.624 191.776ZM65.712 203.008C67.632 203.008 69.048 201.616 69.048 199.792V198.952L65.376 199.768C64.296 200.008 63.672 200.632 63.672 201.424C63.672 202.408 64.464 203.008 65.712 203.008ZM75.3638 205V194.656H73.0358V192.064H75.3638V191.32C75.3638 188.416 77.2598 186.76 80.0918 186.76C80.4758 186.76 81.0278 186.808 81.3398 186.88V189.376C81.0518 189.328 80.6678 189.304 80.4518 189.304C79.0838 189.304 78.2438 190 78.2438 191.32V192.064H81.1718V194.656H78.2438V205H75.3638ZM84.1997 205V194.656H81.8717V192.064H84.1997V191.32C84.1997 188.416 86.0957 186.76 88.9277 186.76C89.3117 186.76 89.8637 186.808 90.1757 186.88V189.376C89.8877 189.328 89.5037 189.304 89.2877 189.304C87.9197 189.304 87.0797 190 87.0797 191.32V192.064H90.0077V194.656H87.0797V205H84.1997ZM97.5578 205.288C93.7658 205.288 90.7658 202.432 90.7658 198.52C90.7658 194.608 93.7418 191.776 97.5578 191.776C101.35 191.776 104.35 194.608 104.35 198.52C104.35 202.432 101.326 205.288 97.5578 205.288ZM97.5578 202.624C99.7418 202.624 101.35 200.92 101.35 198.544C101.35 196.168 99.7418 194.44 97.5578 194.44C95.3498 194.44 93.7658 196.168 93.7658 198.544C93.7658 200.92 95.3498 202.624 97.5578 202.624ZM112.608 191.92H113.808V194.512H112.248C110.472 194.512 109.272 195.664 109.272 197.68V205H106.392V192.064H109.104V193.864C109.776 192.448 111.024 191.92 112.608 191.92ZM125.539 187.12H128.419V205H125.683V203.488C124.723 204.64 123.163 205.288 121.435 205.288C117.715 205.288 114.883 202.36 114.883 198.544C114.883 194.704 117.763 191.776 121.411 191.776C123.139 191.776 124.627 192.4 125.539 193.504V187.12ZM121.723 202.624C123.931 202.624 125.539 200.944 125.539 198.544C125.539 196.168 123.931 194.44 121.723 194.44C119.491 194.44 117.883 196.168 117.883 198.544C117.883 200.92 119.491 202.624 121.723 202.624ZM136.421 191.776C139.565 191.776 141.725 193.672 141.725 196.36V205H139.013V203.56C138.053 204.712 136.733 205.288 135.173 205.288C132.293 205.288 130.469 203.656 130.469 201.448C130.469 199.528 131.981 198.256 134.597 197.68L138.845 196.768V196.36C138.845 195.16 137.861 194.368 136.421 194.368C135.029 194.368 133.925 195.136 133.445 196.36L130.949 195.112C131.693 193.144 133.853 191.776 136.421 191.776ZM135.509 203.008C137.429 203.008 138.845 201.616 138.845 199.792V198.952L135.173 199.768C134.093 200.008 133.469 200.632 133.469 201.424C133.469 202.408 134.261 203.008 135.509 203.008ZM151.041 191.776C154.689 191.776 157.569 194.704 157.569 198.544C157.569 202.36 154.713 205.288 151.017 205.288C149.241 205.288 147.681 204.64 146.745 203.464V205H144.033V187.12H146.913V193.48C147.825 192.4 149.289 191.776 151.041 191.776ZM150.729 202.624C152.937 202.624 154.569 200.92 154.569 198.544C154.569 196.168 152.937 194.44 150.729 194.44C148.497 194.44 146.913 196.168 146.913 198.544C146.913 200.944 148.497 202.624 150.729 202.624ZM159.619 205V187.12H162.499V205H159.619ZM177.195 198.064C177.195 198.52 177.147 198.976 177.051 199.36H167.547C167.691 201.424 169.203 202.744 171.195 202.744C172.731 202.744 173.763 202 174.339 200.944L176.715 202.096C175.923 203.944 173.811 205.288 171.171 205.288C167.259 205.288 164.547 202.312 164.547 198.52C164.547 194.632 167.307 191.776 170.955 191.776C174.603 191.776 177.195 194.632 177.195 198.064ZM167.595 197.128H174.099C174.003 195.4 172.611 194.176 170.955 194.176C169.275 194.176 167.931 195.232 167.595 197.128ZM188.476 191.776C191.62 191.776 193.78 193.672 193.78 196.36V205H191.068V203.56C190.108 204.712 188.788 205.288 187.228 205.288C184.348 205.288 182.524 203.656 182.524 201.448C182.524 199.528 184.036 198.256 186.652 197.68L190.9 196.768V196.36C190.9 195.16 189.916 194.368 188.476 194.368C187.084 194.368 185.98 195.136 185.5 196.36L183.004 195.112C183.748 193.144 185.908 191.776 188.476 191.776ZM187.564 203.008C189.484 203.008 190.9 201.616 190.9 199.792V198.952L187.228 199.768C186.148 200.008 185.524 200.632 185.524 201.424C185.524 202.408 186.316 203.008 187.564 203.008ZM202.471 191.776C205.351 191.776 207.343 193.768 207.343 196.6V205H204.463V197.32C204.463 195.568 203.359 194.44 201.727 194.44C200.071 194.44 198.967 195.568 198.967 197.32V205H196.087V192.064H198.799V193.624C199.519 192.424 200.863 191.776 202.471 191.776ZM219.828 187.12H222.708V205H219.972V203.488C219.012 204.64 217.452 205.288 215.724 205.288C212.004 205.288 209.172 202.36 209.172 198.544C209.172 194.704 212.052 191.776 215.7 191.776C217.428 191.776 218.916 192.4 219.828 193.504V187.12ZM216.012 202.624C218.22 202.624 219.828 200.944 219.828 198.544C219.828 196.168 218.22 194.44 216.012 194.44C213.78 194.44 212.172 196.168 212.172 198.544C212.172 200.92 213.78 202.624 216.012 202.624ZM234.929 191.776C238.073 191.776 240.233 193.672 240.233 196.36V205H237.521V203.56C236.561 204.712 235.241 205.288 233.681 205.288C230.801 205.288 228.977 203.656 228.977 201.448C228.977 199.528 230.489 198.256 233.105 197.68L237.353 196.768V196.36C237.353 195.16 236.369 194.368 234.929 194.368C233.537 194.368 232.433 195.136 231.953 196.36L229.457 195.112C230.201 193.144 232.361 191.776 234.929 191.776ZM234.017 203.008C235.937 203.008 237.353 201.616 237.353 199.792V198.952L233.681 199.768C232.601 200.008 231.977 200.632 231.977 201.424C231.977 202.408 232.769 203.008 234.017 203.008ZM248.468 205.288C244.676 205.288 241.82 202.384 241.82 198.52C241.82 194.656 244.652 191.776 248.468 191.776C251.204 191.776 253.46 193.312 254.252 195.496L251.756 196.744C251.252 195.352 250.028 194.44 248.468 194.44C246.356 194.44 244.82 196.144 244.82 198.544C244.82 200.896 246.356 202.624 248.468 202.624C250.052 202.624 251.252 201.736 251.756 200.32L254.252 201.592C253.484 203.704 251.228 205.288 248.468 205.288ZM262.015 205.288C258.223 205.288 255.367 202.384 255.367 198.52C255.367 194.656 258.199 191.776 262.015 191.776C264.751 191.776 267.007 193.312 267.799 195.496L265.303 196.744C264.799 195.352 263.575 194.44 262.015 194.44C259.903 194.44 258.367 196.144 258.367 198.544C258.367 200.896 259.903 202.624 262.015 202.624C263.599 202.624 264.799 201.736 265.303 200.32L267.799 201.592C267.031 203.704 264.775 205.288 262.015 205.288ZM281.562 198.064C281.562 198.52 281.514 198.976 281.418 199.36H271.914C272.058 201.424 273.57 202.744 275.562 202.744C277.098 202.744 278.13 202 278.706 200.944L281.082 202.096C280.29 203.944 278.178 205.288 275.538 205.288C271.626 205.288 268.914 202.312 268.914 198.52C268.914 194.632 271.674 191.776 275.322 191.776C278.97 191.776 281.562 194.632 281.562 198.064ZM271.962 197.128H278.466C278.37 195.4 276.978 194.176 275.322 194.176C273.642 194.176 272.298 195.232 271.962 197.128ZM288.288 205.288C285.6 205.288 283.392 203.92 282.576 201.664L284.808 200.584C285.48 202.12 286.752 202.936 288.288 202.936C289.584 202.936 290.424 202.336 290.424 201.448C290.424 200.56 289.512 200.176 288.72 199.96L286.512 199.384C284.256 198.76 283.128 197.44 283.128 195.688C283.128 193.36 285.072 191.776 287.928 191.776C290.472 191.776 292.488 193.048 293.28 195.112L291.024 196.168C290.544 194.944 289.392 194.2 287.928 194.2C286.728 194.2 285.984 194.752 285.984 195.568C285.984 196.384 286.8 196.792 287.544 197.008L289.848 197.656C292.08 198.28 293.28 199.576 293.28 201.376C293.28 203.704 291.24 205.288 288.288 205.288ZM300.147 205.288C297.459 205.288 295.251 203.92 294.435 201.664L296.667 200.584C297.339 202.12 298.611 202.936 300.147 202.936C301.443 202.936 302.283 202.336 302.283 201.448C302.283 200.56 301.371 200.176 300.579 199.96L298.371 199.384C296.115 198.76 294.987 197.44 294.987 195.688C294.987 193.36 296.931 191.776 299.787 191.776C302.331 191.776 304.347 193.048 305.139 195.112L302.883 196.168C302.403 194.944 301.251 194.2 299.787 194.2C298.587 194.2 297.843 194.752 297.843 195.568C297.843 196.384 298.659 196.792 299.403 197.008L301.707 197.656C303.939 198.28 305.139 199.576 305.139 201.376C305.139 203.704 303.099 205.288 300.147 205.288ZM307.015 190.36V187.12H309.895V190.36H307.015ZM307.015 205V192.064H309.895V205H307.015ZM319.58 191.776C323.228 191.776 326.108 194.704 326.108 198.544C326.108 202.36 323.252 205.288 319.556 205.288C317.78 205.288 316.22 204.64 315.284 203.464V205H312.572V187.12H315.452V193.48C316.364 192.4 317.828 191.776 319.58 191.776ZM319.268 202.624C321.476 202.624 323.108 200.92 323.108 198.544C323.108 196.168 321.476 194.44 319.268 194.44C317.036 194.44 315.452 196.168 315.452 198.544C315.452 200.944 317.036 202.624 319.268 202.624ZM328.158 205V187.12H331.038V205H328.158ZM345.734 198.064C345.734 198.52 345.686 198.976 345.59 199.36H336.086C336.23 201.424 337.742 202.744 339.734 202.744C341.27 202.744 342.302 202 342.878 200.944L345.254 202.096C344.462 203.944 342.35 205.288 339.71 205.288C335.798 205.288 333.086 202.312 333.086 198.52C333.086 194.632 335.846 191.776 339.494 191.776C343.142 191.776 345.734 194.632 345.734 198.064ZM336.134 197.128H342.638C342.542 195.4 341.15 194.176 339.494 194.176C337.814 194.176 336.47 195.232 336.134 197.128ZM357.015 191.776C360.159 191.776 362.319 193.672 362.319 196.36V205H359.607V203.56C358.647 204.712 357.327 205.288 355.767 205.288C352.887 205.288 351.063 203.656 351.063 201.448C351.063 199.528 352.575 198.256 355.191 197.68L359.439 196.768V196.36C359.439 195.16 358.455 194.368 357.015 194.368C355.623 194.368 354.519 195.136 354.039 196.36L351.543 195.112C352.287 193.144 354.447 191.776 357.015 191.776ZM356.103 203.008C358.023 203.008 359.439 201.616 359.439 199.792V198.952L355.767 199.768C354.687 200.008 354.063 200.632 354.063 201.424C354.063 202.408 354.855 203.008 356.103 203.008ZM371.61 191.776C375.258 191.776 378.162 194.68 378.162 198.52C378.162 202.36 375.282 205.288 371.586 205.288C369.882 205.288 368.418 204.688 367.506 203.68V209.8H364.626V192.064H367.338V193.696C368.226 192.496 369.786 191.776 371.61 191.776ZM371.322 202.624C373.53 202.624 375.162 200.896 375.162 198.544C375.162 196.168 373.53 194.44 371.322 194.44C369.09 194.44 367.506 196.144 367.506 198.544C367.506 200.92 369.09 202.624 371.322 202.624ZM387.196 191.776C390.844 191.776 393.748 194.68 393.748 198.52C393.748 202.36 390.868 205.288 387.172 205.288C385.468 205.288 384.004 204.688 383.092 203.68V209.8H380.212V192.064H382.924V193.696C383.812 192.496 385.372 191.776 387.196 191.776ZM386.908 202.624C389.116 202.624 390.748 200.896 390.748 198.544C390.748 196.168 389.116 194.44 386.908 194.44C384.676 194.44 383.092 196.144 383.092 198.544C383.092 200.92 384.676 202.624 386.908 202.624ZM401.145 205V194.656H398.817V192.064H401.145V191.32C401.145 188.416 403.041 186.76 405.873 186.76C406.257 186.76 406.809 186.808 407.121 186.88V189.376C406.833 189.328 406.449 189.304 406.233 189.304C404.865 189.304 404.025 190 404.025 191.32V192.064H406.953V194.656H404.025V205H401.145ZM414.503 205.288C410.711 205.288 407.711 202.432 407.711 198.52C407.711 194.608 410.687 191.776 414.503 191.776C418.295 191.776 421.295 194.608 421.295 198.52C421.295 202.432 418.271 205.288 414.503 205.288ZM414.503 202.624C416.687 202.624 418.295 200.92 418.295 198.544C418.295 196.168 416.687 194.44 414.503 194.44C412.295 194.44 410.711 196.168 410.711 198.544C410.711 200.92 412.295 202.624 414.503 202.624ZM429.553 191.92H430.753V194.512H429.193C427.417 194.512 426.217 195.664 426.217 197.68V205H423.337V192.064H426.049V193.864C426.721 192.448 427.969 191.92 429.553 191.92ZM66.288 236.288C63.6 236.288 61.392 234.92 60.576 232.664L62.808 231.584C63.48 233.12 64.752 233.936 66.288 233.936C67.584 233.936 68.424 233.336 68.424 232.448C68.424 231.56 67.512 231.176 66.72 230.96L64.512 230.384C62.256 229.76 61.128 228.44 61.128 226.688C61.128 224.36 63.072 222.776 65.928 222.776C68.472 222.776 70.488 224.048 71.28 226.112L69.024 227.168C68.544 225.944 67.392 225.2 65.928 225.2C64.728 225.2 63.984 225.752 63.984 226.568C63.984 227.384 64.8 227.792 65.544 228.008L67.848 228.656C70.08 229.28 71.28 230.576 71.28 232.376C71.28 234.704 69.24 236.288 66.288 236.288ZM79.0834 236.144C76.1794 236.144 74.5474 234.512 74.5474 231.656V225.656H72.1954V223.064H72.5794C73.8274 223.064 74.5474 222.368 74.5474 221.12V219.056H77.4274V223.064H80.4994V225.656H77.4274V231.656C77.4274 232.76 77.8834 233.792 79.7074 233.792C79.9474 233.792 80.2594 233.768 80.5714 233.72V236.024C80.1154 236.096 79.5394 236.144 79.0834 236.144ZM90.7389 223.064H93.6189V236H90.8829V234.512C90.1629 235.64 88.8429 236.288 87.2589 236.288C84.3789 236.288 82.3629 234.08 82.3629 231.104V223.064H85.2429V230.744C85.2429 232.496 86.3469 233.624 88.0029 233.624C89.6349 233.624 90.7389 232.496 90.7389 230.744V223.064ZM106.344 218.12H109.224V236H106.488V234.488C105.528 235.64 103.968 236.288 102.24 236.288C98.5196 236.288 95.6876 233.36 95.6876 229.544C95.6876 225.704 98.5676 222.776 102.216 222.776C103.944 222.776 105.432 223.4 106.344 224.504V218.12ZM102.528 233.624C104.736 233.624 106.344 231.944 106.344 229.544C106.344 227.168 104.736 225.44 102.528 225.44C100.296 225.44 98.6876 227.168 98.6876 229.544C98.6876 231.92 100.296 233.624 102.528 233.624ZM123.922 229.064C123.922 229.52 123.874 229.976 123.778 230.36H114.274C114.418 232.424 115.93 233.744 117.922 233.744C119.458 233.744 120.49 233 121.066 231.944L123.442 233.096C122.65 234.944 120.538 236.288 117.898 236.288C113.986 236.288 111.274 233.312 111.274 229.52C111.274 225.632 114.034 222.776 117.682 222.776C121.33 222.776 123.922 225.632 123.922 229.064ZM114.322 228.128H120.826C120.73 226.4 119.338 225.176 117.682 225.176C116.002 225.176 114.658 226.232 114.322 228.128ZM132.135 222.776C135.015 222.776 137.007 224.768 137.007 227.6V236H134.127V228.32C134.127 226.568 133.023 225.44 131.391 225.44C129.735 225.44 128.631 226.568 128.631 228.32V236H125.751V223.064H128.463V224.624C129.183 223.424 130.527 222.776 132.135 222.776ZM145.388 236.144C142.484 236.144 140.852 234.512 140.852 231.656V225.656H138.5V223.064H138.884C140.132 223.064 140.852 222.368 140.852 221.12V219.056H143.732V223.064H146.804V225.656H143.732V231.656C143.732 232.76 144.188 233.792 146.012 233.792C146.252 233.792 146.564 233.768 146.876 233.72V236.024C146.42 236.096 145.844 236.144 145.388 236.144ZM153.804 236.288C151.116 236.288 148.908 234.92 148.092 232.664L150.324 231.584C150.996 233.12 152.268 233.936 153.804 233.936C155.1 233.936 155.94 233.336 155.94 232.448C155.94 231.56 155.028 231.176 154.236 230.96L152.028 230.384C149.772 229.76 148.644 228.44 148.644 226.688C148.644 224.36 150.588 222.776 153.444 222.776C155.988 222.776 158.004 224.048 158.796 226.112L156.54 227.168C156.06 225.944 154.908 225.2 153.444 225.2C152.244 225.2 151.5 225.752 151.5 226.568C151.5 227.384 152.316 227.792 153.06 228.008L155.364 228.656C157.596 229.28 158.796 230.576 158.796 232.376C158.796 234.704 156.756 236.288 153.804 236.288ZM164.319 230.624V230.192C164.319 228.056 165.471 226.76 166.599 225.656C167.607 224.648 168.615 223.784 168.615 222.56C168.615 221.432 167.751 220.568 166.095 220.568C164.415 220.568 163.263 221.432 162.735 223.088L160.335 221.768C161.103 219.392 163.359 217.832 166.095 217.832C169.599 217.832 171.639 220.136 171.639 222.584C171.639 224.528 170.295 225.728 169.071 226.928C168.039 227.912 167.127 228.92 167.127 230.336V230.624H164.319ZM164.271 236V232.76H167.247V236H164.271Z" fill="#1E1E1E"/>
</g>
<defs>
<filter id="filter0_d_275_2296" x="0" y="0" width="497" height="332" filterUnits="userSpaceOnUse" color-interpolation-filters="sRGB">
<feFlood flood-opacity="0" result="BackgroundImageFix"/>
<feColorMatrix in="SourceAlpha" type="matrix" values="0 0 0 0 0 0 0 0 0 0 0 0 0 0 0 0 0 0 127 0" result="hardAlpha"/>
<feOffset dy="30"/>
<feGaussianBlur stdDeviation="20"/>
<feComposite in2="hardAlpha" operator="out"/>
<feColorMatrix type="matrix" values="0 0 0 0 0 0 0 0 0 0 0 0 0 0 0 0 0 0 0.05 0"/>
<feBlend mode="normal" in2="BackgroundImageFix" result="effect1_dropShadow_275_2296"/>
<feBlend mode="normal" in="SourceGraphic" in2="effect1_dropShadow_275_2296" result="shape"/>
</filter>
</defs>
</svg>
