<svg width="245" height="218" viewBox="0 0 245 218" fill="none" xmlns="http://www.w3.org/2000/svg">
<path fill-rule="evenodd" clip-rule="evenodd" d="M104.985 108.742C118.75 108.175 132.189 111.064 143.356 119.076C156.887 128.784 169.797 140.816 172.488 157.175C175.57 175.917 173.016 197.973 158.336 210.147C144.124 221.933 123.2 216.464 104.985 213.155C90.7686 210.573 77.5328 204.664 68.1342 193.763C59.4406 183.68 56.4339 170.445 56.7185 157.175C56.9958 144.236 60.5026 131.31 69.6704 122.111C78.882 112.868 91.8995 109.281 104.985 108.742Z" fill="#96F4DC"/>
<path d="M5.05888 179.774V116.959H18.1276V179.774H5.05888ZM51.8864 180.785C39.4079 180.785 28.7842 173.787 25.3273 163.164L36.2882 158.021C39.3235 165.356 45.6471 169.403 51.8864 169.403C58.2943 169.403 62.0885 166.452 62.0885 162.742C62.0885 159.454 59.812 157.683 56.1021 156.503L43.2863 152.456C32.5784 149.083 27.5195 143.013 27.5195 134.665C27.5195 123.452 36.5412 115.948 50.1158 115.948C62.1728 115.948 71.616 122.608 74.9886 131.883L64.0277 137.026C61.9199 131.04 56.861 127.33 50.1158 127.33C44.3824 127.33 40.5883 130.281 40.5883 134.159C40.5883 137.11 42.7804 139.303 46.8275 140.567L59.3061 144.446C69.8454 147.734 75.1573 153.383 75.1573 161.983C75.1573 173.281 65.8826 180.785 51.8864 180.785ZM106.394 180.785C93.9159 180.785 83.2923 173.787 79.8354 163.164L90.7963 158.021C93.8316 165.356 100.155 169.403 106.394 169.403C112.802 169.403 116.597 166.452 116.597 162.742C116.597 159.454 114.32 157.683 110.61 156.503L97.7944 152.456C87.0864 149.083 82.0276 143.013 82.0276 134.665C82.0276 123.452 91.0492 115.948 104.624 115.948C116.681 115.948 126.124 122.608 129.497 131.883L118.536 137.026C116.428 131.04 111.369 127.33 104.624 127.33C98.8905 127.33 95.0963 130.281 95.0963 134.159C95.0963 137.11 97.2885 139.303 101.336 140.567L113.814 144.446C124.354 147.734 129.665 153.383 129.665 161.983C129.665 173.281 120.391 180.785 106.394 180.785ZM175.658 116.959H188.726V155.913C188.726 169.993 178.44 180.785 163.01 180.785C147.581 180.785 137.294 169.993 137.294 155.913V116.959H150.363V155.913C150.363 163.754 155.422 168.981 163.01 168.981C170.599 168.981 175.658 163.754 175.658 155.913V116.959ZM198.884 179.774V116.959H241.125V128.342H211.952V142.591H239.439V153.973H211.952V168.391H241.125L241.041 179.774H198.884Z" fill="#1E1E1E"/>
<path d="M17.376 70.7763L18.8094 63.8625H50.0058L48.5724 70.7763H17.376ZM75.9681 90.5059C66.9464 90.5059 63.068 84.6039 64.8386 76.341L70.0661 52.0584H61.466L62.8993 45.1446H65.2601C68.97 45.1446 72.0053 42.7838 72.8485 38.7367L74.5347 30.9798H81.7858L78.8348 45.1446H89.5427L88.1094 52.0584H77.3171L72.0896 76.341C70.9935 81.4842 72.5112 84.4352 78.5818 84.4352C79.5936 84.4352 80.8583 84.3509 81.8701 84.1823L80.6054 90.0843C79.0034 90.4216 77.3171 90.5059 75.9681 90.5059ZM117.192 44.1329C126.973 44.1329 134.224 52.3957 132.2 62.1762L126.635 90H119.384L124.612 63.8625C126.129 56.2742 121.914 50.878 114.578 50.878C108.592 50.878 103.955 54.9251 102.606 61.5017L96.8722 90H89.6211L102.437 28.0288H109.688L105.388 48.6015C108.423 45.7348 112.723 44.1329 117.192 44.1329ZM181.729 69.7645H146.401V71.6194C146.401 79.3764 152.387 84.4352 159.891 84.4352C165.541 84.4352 169.672 81.4842 172.454 77.8587L178.103 81.9901C174.478 87.3019 167.564 91.0118 159.723 91.0118C147.834 91.0118 139.15 82.8333 139.15 70.692C139.15 56.6957 149.436 44.3015 163.264 44.3015C175.743 44.3015 182.656 52.8173 182.656 63.0193C182.656 65.9703 182.235 68.0782 181.729 69.7645ZM163.18 50.7094C155.338 50.7094 149.858 56.1898 147.581 63.4409H174.815C175.49 55.9369 169.841 50.7094 163.18 50.7094ZM191.275 70.7763L192.708 63.8625H223.905L222.471 70.7763H191.275Z" fill="#1E1E1E"/>
</svg>
