<svg width="231" height="213" viewBox="0 0 231 213" fill="none" xmlns="http://www.w3.org/2000/svg">
<g filter="url(#filter0_d_275_2352)">
<rect x="40" y="10" width="151" height="133" rx="20" fill="#FAFAFA" shape-rendering="crispEdges"/>
<path d="M61.44 56V38.12H67.272C73.08 38.12 76.8 41.864 76.8 47.048C76.8 52.232 73.056 56 67.272 56H61.44ZM65.16 52.76H67.368C70.848 52.76 73.08 50.528 73.08 47.048C73.08 43.568 70.848 41.36 67.368 41.36H65.16V52.76ZM91.2564 49.064C91.2564 49.592 91.2084 50.096 91.0884 50.456H81.8724C82.0884 52.112 83.2644 53.168 85.0404 53.168C86.3124 53.168 87.2484 52.616 87.7524 51.728L90.6324 53.096C89.8404 55.016 87.6804 56.288 84.9924 56.288C80.8404 56.288 78.1284 53.216 78.1284 49.424C78.1284 45.512 81.0084 42.608 84.7524 42.608C88.4244 42.608 91.2564 45.44 91.2564 49.064ZM81.9444 47.816H87.4404C87.2964 46.424 86.2404 45.488 84.7524 45.488C83.3364 45.488 82.3044 46.304 81.9444 47.816ZM98.004 56.288C95.148 56.288 92.796 54.896 91.98 52.52L94.644 51.272C95.34 52.736 96.516 53.528 98.004 53.528C99.132 53.528 99.852 53.072 99.852 52.352C99.852 51.488 98.796 51.224 98.34 51.104L96.036 50.504C93.66 49.88 92.508 48.488 92.508 46.688C92.508 44.264 94.596 42.608 97.668 42.608C100.356 42.608 102.492 43.904 103.332 46.04L100.644 47.288C100.212 46.16 99.084 45.488 97.668 45.488C96.612 45.488 95.988 45.896 95.988 46.568C95.988 47.36 96.9 47.6 97.332 47.72L99.756 48.368C102.084 48.992 103.332 50.336 103.332 52.208C103.332 54.632 101.148 56.288 98.004 56.288ZM105.005 41.72V38.12H108.605V41.72H105.005ZM105.005 56V42.896H108.605V56H105.005ZM120.701 42.896H124.061V55.304C124.061 58.976 120.965 61.328 117.317 61.328C114.317 61.328 111.917 59.744 111.149 57.344L114.221 55.832C114.629 57.248 115.733 58.088 117.317 58.088C119.117 58.088 120.461 57.008 120.461 55.304V54.032C119.549 54.896 118.277 55.352 116.813 55.352C113.261 55.352 110.285 52.808 110.285 48.944C110.285 44.984 113.405 42.608 116.741 42.608C118.445 42.608 119.789 43.232 120.701 44.288V42.896ZM117.269 52.088C119.117 52.088 120.461 50.816 120.461 48.992C120.461 47.12 119.069 45.848 117.269 45.848C115.469 45.848 114.005 47.12 114.005 48.992C114.005 50.816 115.421 52.088 117.269 52.088ZM133.482 42.608C136.434 42.608 138.45 44.6 138.45 47.576V56H134.85V48.344C134.85 46.832 133.866 45.848 132.45 45.848C131.034 45.848 130.05 46.832 130.05 48.344V56H126.45V42.896H129.81V44.48C130.482 43.208 131.826 42.608 133.482 42.608ZM61.44 87V69.12H65.16V87H61.44ZM74.0974 87.144C70.9294 87.144 69.1054 85.344 69.1054 82.272V77.016H66.8494V73.896H67.0174C68.3614 73.896 69.1054 73.224 69.1054 71.88V69.96H72.7054V73.896H75.7774V77.016H72.7054V82.272C72.7054 83.616 73.4254 84.264 74.9374 84.264C75.1534 84.264 75.4414 84.24 75.7774 84.192V87.024C75.2974 87.096 74.6494 87.144 74.0974 87.144ZM89.8736 80.064C89.8736 80.592 89.8256 81.096 89.7056 81.456H80.4896C80.7056 83.112 81.8816 84.168 83.6576 84.168C84.9296 84.168 85.8656 83.616 86.3696 82.728L89.2496 84.096C88.4576 86.016 86.2976 87.288 83.6096 87.288C79.4576 87.288 76.7456 84.216 76.7456 80.424C76.7456 76.512 79.6256 73.608 83.3696 73.608C87.0416 73.608 89.8736 76.44 89.8736 80.064ZM80.5616 78.816H86.0576C85.9136 77.424 84.8576 76.488 83.3696 76.488C81.9536 76.488 80.9216 77.304 80.5616 78.816ZM98.2292 73.752H99.5972V76.872H97.8692C96.1172 76.872 94.9172 78 94.9172 79.944V87H91.3172V73.896H94.6772V75.864C95.3492 74.232 96.6212 73.752 98.2292 73.752ZM106.612 73.608C109.948 73.608 112.228 75.552 112.228 78.36V87H108.868V85.8C107.884 86.832 106.684 87.288 105.172 87.288C102.196 87.288 100.324 85.608 100.324 83.424C100.324 81.48 101.86 80.208 104.524 79.656L108.628 78.792V78.36C108.628 77.376 107.812 76.728 106.612 76.728C105.34 76.728 104.284 77.472 103.9 78.648L100.804 77.16C101.572 75 103.828 73.608 106.612 73.608ZM105.724 84.648C107.356 84.648 108.628 83.472 108.628 82.008V81.384L105.172 82.152C104.428 82.32 104.044 82.776 104.044 83.376C104.044 84.168 104.692 84.648 105.724 84.648ZM120.433 87.144C117.265 87.144 115.441 85.344 115.441 82.272V77.016H113.185V73.896H113.353C114.697 73.896 115.441 73.224 115.441 71.88V69.96H119.041V73.896H122.113V77.016H119.041V82.272C119.041 83.616 119.761 84.264 121.273 84.264C121.489 84.264 121.777 84.24 122.113 84.192V87.024C121.633 87.096 120.985 87.144 120.433 87.144ZM123.802 72.72V69.12H127.402V72.72H123.802ZM123.802 87V73.896H127.402V87H123.802ZM136.09 87.288C132.202 87.288 129.082 84.408 129.082 80.448C129.082 76.488 132.202 73.608 136.09 73.608C139.978 73.608 143.098 76.488 143.098 80.448C143.098 84.408 139.978 87.288 136.09 87.288ZM136.09 84.048C138.058 84.048 139.378 82.56 139.378 80.448C139.378 78.36 138.058 76.848 136.09 76.848C134.122 76.848 132.802 78.36 132.802 80.448C132.802 82.56 134.122 84.048 136.09 84.048ZM151.81 73.608C154.762 73.608 156.778 75.6 156.778 78.576V87H153.178V79.344C153.178 77.832 152.194 76.848 150.778 76.848C149.362 76.848 148.378 77.832 148.378 79.344V87H144.778V73.896H148.138V75.48C148.81 74.208 150.154 73.608 151.81 73.608ZM61.44 118V100.12H68.784C72.48 100.12 75.12 102.088 75.12 105.832C75.12 109.504 72.432 111.52 68.784 111.52H65.16V118H61.44ZM65.16 108.28H68.808C70.368 108.28 71.4 107.296 71.4 105.832C71.4 104.344 70.368 103.36 68.808 103.36H65.16V108.28ZM83.8386 104.752H85.2066V107.872H83.4786C81.7266 107.872 80.5266 109 80.5266 110.944V118H76.9266V104.896H80.2866V106.864C80.9586 105.232 82.2306 104.752 83.8386 104.752ZM92.9411 118.288C89.0531 118.288 85.9331 115.408 85.9331 111.448C85.9331 107.488 89.0531 104.608 92.9411 104.608C96.8291 104.608 99.9491 107.488 99.9491 111.448C99.9491 115.408 96.8291 118.288 92.9411 118.288ZM92.9411 115.048C94.9091 115.048 96.2291 113.56 96.2291 111.448C96.2291 109.36 94.9091 107.848 92.9411 107.848C90.9731 107.848 89.6531 109.36 89.6531 111.448C89.6531 113.56 90.9731 115.048 92.9411 115.048ZM107.846 118.288C103.91 118.288 100.91 115.336 100.91 111.424C100.91 107.536 103.886 104.608 107.846 104.608C110.774 104.608 113.174 106.216 113.966 108.64L110.894 110.128C110.486 108.736 109.31 107.848 107.846 107.848C105.95 107.848 104.63 109.336 104.63 111.448C104.63 113.56 105.95 115.048 107.846 115.048C109.334 115.048 110.486 114.16 110.894 112.768L113.966 114.28C113.222 116.608 110.822 118.288 107.846 118.288ZM127.819 111.064C127.819 111.592 127.771 112.096 127.651 112.456H118.435C118.651 114.112 119.827 115.168 121.603 115.168C122.875 115.168 123.811 114.616 124.315 113.728L127.195 115.096C126.403 117.016 124.243 118.288 121.555 118.288C117.403 118.288 114.691 115.216 114.691 111.424C114.691 107.512 117.571 104.608 121.315 104.608C124.987 104.608 127.819 107.44 127.819 111.064ZM118.507 109.816H124.003C123.859 108.424 122.803 107.488 121.315 107.488C119.899 107.488 118.867 108.304 118.507 109.816ZM134.567 118.288C131.711 118.288 129.359 116.896 128.543 114.52L131.207 113.272C131.903 114.736 133.079 115.528 134.567 115.528C135.695 115.528 136.415 115.072 136.415 114.352C136.415 113.488 135.359 113.224 134.903 113.104L132.599 112.504C130.223 111.88 129.071 110.488 129.071 108.688C129.071 106.264 131.159 104.608 134.23 104.608C136.919 104.608 139.055 105.904 139.895 108.04L137.207 109.288C136.775 108.16 135.647 107.488 134.23 107.488C133.175 107.488 132.551 107.896 132.551 108.568C132.551 109.36 133.463 109.6 133.895 109.72L136.319 110.368C138.647 110.992 139.895 112.336 139.895 114.208C139.895 116.632 137.711 118.288 134.567 118.288ZM146.871 118.288C144.015 118.288 141.663 116.896 140.847 114.52L143.511 113.272C144.207 114.736 145.383 115.528 146.871 115.528C147.999 115.528 148.719 115.072 148.719 114.352C148.719 113.488 147.663 113.224 147.207 113.104L144.903 112.504C142.527 111.88 141.375 110.488 141.375 108.688C141.375 106.264 143.463 104.608 146.535 104.608C149.223 104.608 151.359 105.904 152.199 108.04L149.511 109.288C149.079 108.16 147.951 107.488 146.535 107.488C145.479 107.488 144.855 107.896 144.855 108.568C144.855 109.36 145.767 109.6 146.199 109.72L148.623 110.368C150.951 110.992 152.199 112.336 152.199 114.208C152.199 116.632 150.015 118.288 146.871 118.288Z" fill="#3DAE6B"/>
</g>
<defs>
<filter id="filter0_d_275_2352" x="0" y="0" width="231" height="213" filterUnits="userSpaceOnUse" color-interpolation-filters="sRGB">
<feFlood flood-opacity="0" result="BackgroundImageFix"/>
<feColorMatrix in="SourceAlpha" type="matrix" values="0 0 0 0 0 0 0 0 0 0 0 0 0 0 0 0 0 0 127 0" result="hardAlpha"/>
<feOffset dy="30"/>
<feGaussianBlur stdDeviation="20"/>
<feComposite in2="hardAlpha" operator="out"/>
<feColorMatrix type="matrix" values="0 0 0 0 0 0 0 0 0 0 0 0 0 0 0 0 0 0 0.05 0"/>
<feBlend mode="normal" in2="BackgroundImageFix" result="effect1_dropShadow_275_2352"/>
<feBlend mode="normal" in="SourceGraphic" in2="effect1_dropShadow_275_2352" result="shape"/>
</filter>
</defs>
</svg>
